<?xml version="1.0" standalone="no"?>
<!DOCTYPE svg PUBLIC "-//W3C//DTD SVG 1.1//EN" "http://www.w3.org/Graphics/SVG/1.1/DTD/svg11.dtd" >
<svg xmlns="http://www.w3.org/2000/svg">
<metadata>
Created by FontPrep 20130207 at Tue May 23 22:50:05 2017
 By designomx
Copyright (c) 2013 by Frank Hemmekam. All rights reserved.
</metadata>
<defs>
<font id="87724add820a29f4ad643303e97f652d" horiz-adv-x='1024' >
  <font-face 
    font-family="BaronNeueBlack"
    font-weight="900"
    font-stretch="normal"
    units-per-em="2048"
    panose-1="2 11 0 0 0 0 0 0 0 0"
    ascent="1536"
    descent="-512"
    x-height="1407"
    cap-height="1434"
    bbox="-98.6667 -479 2039.09 1954.62"
    underline-thickness="102"
    underline-position="-102"
    unicode-range="U+0020-25FC"
  />
<missing-glyph horiz-adv-x="748" 
d="M136 68h408v1229h-408v-1229zM68 0v1365h544v-1365h-544z" />
    <glyph glyph-name=".notdef" horiz-adv-x="748" 
d="M136 68h408v1229h-408v-1229zM68 0v1365h544v-1365h-544z" />
    <glyph glyph-name="glyph1" horiz-adv-x="0" 
 />
    <glyph glyph-name="glyph2" horiz-adv-x="682" 
 />
    <glyph glyph-name="space" unicode=" " horiz-adv-x="706" 
 />
    <glyph glyph-name="exclam" unicode="!" horiz-adv-x="565" 
d="M117 432v965q0 14 13 25.5t32 11.5h227q18 0 30.5 -11.5t12.5 -25.5v-965q0 -14 -12.5 -25.5t-30.5 -11.5h-227q-19 0 -32 11.5t-13 25.5zM102 150q0 66 50 115.5t122 49.5t123.5 -48.5t51.5 -116.5t-51.5 -117t-123.5 -49t-122 50t-50 116z" />
    <glyph glyph-name="quotedbl" unicode="&#x22;" horiz-adv-x="651" 
d="M358 965v432q0 14 12 25.5t31 11.5h164q19 0 32 -11.5t13 -25.5v-432q0 -14 -13 -25.5t-32 -11.5h-164q-19 0 -31 11.5t-12 25.5zM25 965v432q0 14 12.5 25.5t30.5 11.5h168q18 0 30.5 -11.5t12.5 -25.5v-432q0 -14 -12.5 -25.5t-30.5 -11.5h-168q-18 0 -30.5 11.5
t-12.5 25.5z" />
    <glyph glyph-name="numbersign" unicode="#" horiz-adv-x="1339" 
d="M502 526h176l96 328h-176zM80 551h151q11 41 31.5 108.5t28.5 94.5l22 73h-137q-24 0 -36.5 15.5t-4.5 34.5l-2 -3l53 193q3 9 16.5 18t26.5 9h154q61 208 90 313q3 9 16.5 18t26.5 9h205q23 0 37 -15.5t6 -32.5l2 3l-86 -295h137q29 105 90 313q3 9 16.5 18t26.5 9h205
q23 0 37 -15.5t6 -32.5l2 3l-86 -295h117q23 0 36.5 -15.5t6.5 -34.5l2 3l-57 -193q-3 -10 -16 -18.5t-25 -8.5h-134q-19 -53 -26 -79t-26.5 -89.5t-30.5 -107.5h118q24 0 37 -14t6 -33l2 2q-7 -25 -27.5 -92.5t-26.5 -91.5q-10 -39 -46 -39h-135l-76 -258q-3 -10 -15 -18.5
t-24 -8.5h-207q-22 0 -35 13.5t-10 29.5l68 242h-135q-43 -151 -74 -258q-3 -10 -16.5 -18.5t-24.5 -8.5h-205q-22 0 -35 15t-6 32l-2 -2l64 240h-133q-21 0 -33.5 15t-5.5 32l-2 -2l55 198q3 8 17 16.5t26 8.5z" />
    <glyph glyph-name="dollar" unicode="$" horiz-adv-x="1112" 
d="M121 446h225q18 0 30.5 -9.5t12.5 -24.5q3 -64 46.5 -98.5t107.5 -34.5t108.5 37.5t44.5 101.5t-48.5 107t-106.5 46q-115 -1 -226 51t-174 149t-63 243t94.5 261.5t237.5 154.5v139q0 14 12.5 25.5t30.5 11.5h190q18 0 30.5 -11.5t12.5 -25.5v-139q141 -41 228 -148.5
t90 -255.5q0 -17 -13 -28t-33 -11h-221q-18 0 -31.5 11t-13.5 28q-3 60 -45.5 93.5t-106.5 33.5t-107.5 -39.5t-43.5 -109.5t45 -106t109 -36q115 0 226 -52t175 -158t64 -252t-90 -254.5t-232 -145.5v-129q0 -12 -12.5 -23.5t-30.5 -11.5h-190q-18 0 -30.5 11.5t-12.5 23.5
v127q-149 35 -240 142.5t-92 271.5q0 34 43 34z" />
    <glyph glyph-name="percent" unicode="%" horiz-adv-x="1359" 
d="M895 301q0 -38 25.5 -66t60.5 -28t61.5 28t26.5 66t-25.5 65t-61.5 27t-61.5 -27t-25.5 -65zM653 300q0 132 95.5 225t231.5 93t231.5 -92.5t95.5 -225.5t-95.5 -225.5t-231.5 -92.5t-231.5 93t-95.5 225zM252 1138q0 -38 26 -66t60 -28t60 28t26 66t-26 66.5t-60 28.5
t-60 -28.5t-26 -66.5zM12 1138q0 130 96 223t230 93t229 -93t95 -223t-96 -222.5t-228 -92.5t-229 92.5t-97 222.5zM1075 1434h215q26 0 36.5 -19.5t-3.5 -38.5q-172 -220 -528.5 -679t-528.5 -679q-3 -3 -16 -8.5t-19 -5.5h-215q-26 0 -36 18.5t4 38.5q172 220 528 679
t528 679q3 3 16 9t19 6z" />
    <glyph glyph-name="ampersand" unicode="&#x26;" horiz-adv-x="1337" 
d="M375 1067q0 -49 31.5 -84t75.5 -35t76 35t32 84t-32 84t-76 35t-75.5 -35t-31.5 -84zM360 479q0 -85 57 -139.5t145 -54.5t153 65l-283 275q-72 -61 -72 -146zM555 -16q-136 0 -243.5 52t-176.5 146q-82 130 -82 269q0 196 152 354q-107 101 -107 259t113 269t271 111
t271 -111t113 -266q0 -87 -41.5 -166t-109.5 -135q22 -23 57.5 -61.5t63.5 -67.5v184q0 13 12.5 24t30.5 11h344q18 0 30.5 -11t12.5 -24v-186q0 -14 -12.5 -24.5t-30.5 -10.5h-129v-100q0 -34 -13 -88l191 -189q9 -11 9 -27t-9 -24l-166 -164q-26 -20 -53 0l-131 129
q-147 -153 -367 -153z" />
    <glyph glyph-name="quotesingle" unicode="'" horiz-adv-x="339" 
d="M20 965v432q0 14 12.5 25.5t30.5 11.5h207q19 0 32 -11.5t13 -25.5v-432q0 -14 -13 -25.5t-32 -11.5h-207q-18 0 -30.5 11.5t-12.5 25.5z" />
    <glyph glyph-name="parenleft" unicode="(" horiz-adv-x="636" 
d="M84 716q0 364 180 697v-2q3 7 16.5 14t22.5 7h264q25 0 36.5 -17.5t-3.5 -36.5q-203 -310 -203 -664t201 -661q15 -19 4 -36q-10 -17 -37 -17h-270l-31 14q-180 338 -180 702z" />
    <glyph glyph-name="parenright" unicode=")" horiz-adv-x="630" 
d="M223 709q0 136 -41 288q-53 210 -162 381q-15 19 -4.5 36.5t39.5 17.5h269l32 -15q89 -175 133 -346v2q46 -170 46 -360q0 -361 -179 -695v2q-4 -7 -18 -13.5t-23 -6.5h-262q-30 0 -40.5 17.5t7.5 37.5h-2q205 310 205 654z" />
    <glyph glyph-name="asterisk" unicode="*" horiz-adv-x="784" 
d="M39 1051v100q0 14 12.5 24.5t32.5 10.5h88l-78 76q-13 8 -12.5 26t12.5 29l70 69q12 8 28.5 8t28.5 -8l68 -65v76q0 14 11.5 25.5t29.5 11.5h100q18 0 30.5 -11.5t12.5 -25.5v-76l66 65q12 8 28.5 8t26.5 -8l70 -69q14 -11 14.5 -29t-14.5 -26l-76 -76h86
q20 0 32.5 -10.5t12.5 -24.5v-100q0 -13 -13 -24t-32 -11h-86l76 -74q12 -10 12 -28t-12 -27l-70 -68q-10 -9 -26.5 -9t-28.5 9l-66 64v-78q0 -14 -12.5 -25.5t-30.5 -11.5h-100q-18 0 -29.5 11.5t-11.5 25.5v78l-68 -64q-12 -9 -28.5 -9t-28.5 9l-70 68q-12 9 -12 27t12 28
l76 74h-86q-19 0 -32 11t-13 24z" />
    <glyph glyph-name="plus" unicode="+" horiz-adv-x="956" 
d="M20 616v199q0 13 12.5 24t30.5 11h240v260q0 13 12.5 24t30.5 11h199q18 0 30.5 -11t12.5 -24v-260h252q19 0 32 -11t13 -24v-199q0 -13 -13 -23.5t-32 -10.5h-252v-263q0 -14 -12.5 -25t-30.5 -11h-199q-18 0 -30.5 11t-12.5 25v263h-240q-18 0 -30.5 10.5t-12.5 23.5z
" />
    <glyph glyph-name="comma" unicode="," horiz-adv-x="380" 
d="M0 144q0 60 48 106.5t128 46.5t124 -48.5t44 -127.5t-47.5 -169t-110.5 -132q-23 -12 -44 -1t-21 34v135q-54 12 -87.5 54t-33.5 102z" />
    <glyph glyph-name="hyphen" unicode="-" horiz-adv-x="907" 
d="M47 616v207q0 14 13 25.5t32 11.5h684q20 0 31.5 -11t11.5 -26v-207q0 -13 -11.5 -23.5t-31.5 -10.5h-684q-19 0 -32 10.5t-13 23.5z" />
    <glyph glyph-name="period" unicode="." horiz-adv-x="368" 
d="M12 144q0 66 49 113.5t117 47.5t116 -47.5t48 -113.5t-48 -111t-117 -45t-117 45t-48 111z" />
    <glyph glyph-name="slash" unicode="/" horiz-adv-x="925" 
d="M643 1434h234q23 0 33.5 -15.5t2.5 -34.5q-99 -213 -318.5 -682t-318.5 -682q-3 -7 -15.5 -14.5t-22.5 -7.5h-228q-23 0 -34 15.5t-3 33.5q98 213 315.5 682t315.5 682q3 7 16.5 15t22.5 8z" />
    <glyph glyph-name="zero" unicode="0" horiz-adv-x="1157" 
d="M438 393q0 -62 38 -98.5t88 -36.5t87 36t37 99v654q0 62 -38 97.5t-88 35.5t-87 -35.5t-37 -97.5v-654zM123 401v631q0 101 37.5 183t100 133t140.5 78.5t162 27.5t161.5 -27.5t140.5 -78.5t101 -133t38 -183v-631q0 -102 -38 -184t-134.5 -159.5t-269.5 -77.5
q-172 0 -268 77.5t-133.5 159.5t-37.5 184z" />
    <glyph glyph-name="one" unicode="1" horiz-adv-x="679" 
d="M504 1434q19 0 30 -11t11 -26v-1362q0 -13 -11 -24t-30 -11h-230q-20 0 -30.5 10.5t-10.5 24.5v1052q-31 -9 -100 -38h2l-49 -19q-39 -7 -53 21l-76 163q-12 37 23 46h-5q306 166 322 174h207z" />
    <glyph glyph-name="two" unicode="2" horiz-adv-x="1003" 
d="M39 35v215l496 686q43 58 43 108t-28.5 79.5t-74.5 29.5t-84.5 -33t-38.5 -96q0 -12 -12 -23.5t-31 -11.5h-213q-19 0 -31 11.5t-12 23.5q0 184 105.5 306t320.5 122q110 0 206.5 -49t157 -139t60.5 -214t-104 -270l-365 -481h443q19 0 32 -11.5t13 -25.5v-227
q0 -13 -13 -24t-32 -11h-795q-18 0 -30.5 11t-12.5 24z" />
    <glyph glyph-name="three" unicode="3" horiz-adv-x="1009" 
d="M25 412q0 14 13 25.5t32 11.5h223q18 0 30.5 -11.5t12.5 -25.5q0 -61 42 -98.5t106 -37.5t107.5 53t43.5 129t-45.5 129.5t-120.5 59.5h-184q-28 0 -41 17.5t2 37.5v-2l260 443h-391q-19 0 -32 11.5t-13 25.5v217q0 14 13 25.5t32 11.5h800q26 0 38 -18t-1 -38v2
l-280 -495q136 -47 207 -164t71 -287q0 -268 -159.5 -361t-297.5 -93t-240 52t-165 152t-63 228z" />
    <glyph glyph-name="four" unicode="4" horiz-adv-x="1054" 
d="M596 682v293l-234 -293h234zM31 449v225l565 737q23 23 39 23h227q19 0 32 -11.5t13 -25.5v-1362q0 -13 -13 -24t-32 -11h-227q-17 0 -29 11t-12 24v377h-520q-18 0 -30.5 11.5t-12.5 25.5z" />
    <glyph glyph-name="five" unicode="5" horiz-adv-x="1026" 
d="M53 418q0 14 12.5 25.5t30.5 11.5h226q19 0 31 -11.5t12 -25.5q0 -66 36.5 -100.5t98.5 -34.5t101.5 50.5t39.5 126.5t-38 130.5t-111 58.5h-386q-19 0 -31 11t-12 24v713q0 14 12 25.5t31 11.5h732q19 0 31 -11.5t12 -25.5v-211q0 -13 -12 -24t-31 -11h-461v-229h117
q230 0 344 -129t114 -357q0 -137 -65 -241t-168 -156.5t-225 -52.5q-192 0 -316.5 113.5t-124.5 318.5z" />
    <glyph glyph-name="six" unicode="6" horiz-adv-x="966" 
d="M324 414q0 -62 41 -106t99 -44t100 44.5t42 106.5t-42 106t-100 44t-99 -44.5t-41 -106.5zM29 422q0 80 20 147l295 840q12 25 39 25h244q19 0 31 -15t6 -33l-191 -540h39q117 0 208 -62.5t137 -159.5t46 -208q0 -178 -130 -305t-317 -127t-307 127.5t-120 310.5z" />
    <glyph glyph-name="seven" unicode="7" horiz-adv-x="892" 
d="M2 1180v217q0 14 13 25.5t32 11.5h813q23 0 35 -15.5t6 -34.5l-514 -1361v2q-7 -25 -39 -25h-242q-20 0 -32.5 16t-5.5 33l411 1094h-432q-19 0 -32 11.5t-13 25.5z" />
    <glyph glyph-name="eight" unicode="8" horiz-adv-x="997" 
d="M350 418q0 -66 39 -107t93 -41t93 41t39 107t-39 110.5t-93 44.5t-93 -44.5t-39 -110.5zM344 1016q0 -68 40 -111t97 -43t98.5 43.5t41.5 110.5t-42 109t-98 42t-96.5 -41.5t-40.5 -109.5zM788 717q138 -127 138 -307q0 -92 -38 -179.5t-136.5 -169t-270.5 -81.5
t-268.5 81.5t-134 168t-37.5 178.5q0 177 129 311q-129 129 -129 305q0 92 37.5 178t134 168t269.5 82t270.5 -82t135.5 -168t38 -180q0 -189 -138 -305z" />
    <glyph glyph-name="nine" unicode="9" horiz-adv-x="995" 
d="M332 1019q0 -61 40 -104t96 -43t97 44t41 104t-41 102.5t-97 42.5t-96 -42.5t-40 -103.5zM31 1018q0 178 129 305t316 127t308 -127.5t121 -310.5q0 -74 -24 -150l-293 -837q-3 -10 -15 -17.5t-24 -7.5h-242q-23 0 -34 14t-5 33l191 541h-39q-116 0 -206.5 62.5
t-136.5 159.5t-46 208z" />
    <glyph glyph-name="colon" unicode=":" horiz-adv-x="368" 
d="M12 728q0 66 49 113.5t117 47.5t116 -47.5t48 -113.5t-48 -111.5t-117 -45.5t-117 45.5t-48 111.5zM12 144q0 66 49 113.5t117 47.5t116 -47.5t48 -113.5t-48 -111t-117 -45t-117 45t-48 111z" />
    <glyph glyph-name="semicolon" unicode=";" horiz-adv-x="370" 
d="M12 728q0 66 49 113.5t117 47.5t116 -47.5t48 -113.5t-48 -111.5t-117 -45.5t-117 45.5t-48 111.5zM0 144q0 60 48 106.5t128 46.5t124 -48.5t44 -127.5t-47.5 -169t-110.5 -132q-23 -12 -44 -1t-21 34v135q-54 12 -87.5 54t-33.5 102z" />
    <glyph glyph-name="less" unicode="&#x3c;" horiz-adv-x="714" 
d="M650 1021.5q0 -14.5 -15 -26.5l4 2l-281 -297l281 -290l-4 2q15 -12 15 -27t-15 -27l4 2l-131 -137q-29 -16 -62 0l-428 453q-11 9 -11.5 25.5t11.5 25.5l424 451q37 23 70 0l123 -131q15 -11 15 -25.5z" />
    <glyph glyph-name="equal" unicode="=" horiz-adv-x="874" 
d="M764 905q43 0 43 -35v-194q0 -12 -11.5 -23.5t-31.5 -11.5h-680q-19 0 -32 11.5t-13 23.5v194q0 14 12.5 24.5t32.5 10.5h680zM39 328v198q0 13 13 24t32 11h680q20 0 31.5 -11t11.5 -24v-198q0 -11 -11.5 -22t-31.5 -11h-680q-19 0 -32 11.5t-13 21.5z" />
    <glyph glyph-name="greater" unicode="&#x3e;" horiz-adv-x="708" 
d="M40 385q0 15 15 27l-4 -2l281 290l-281 297l4 -2q-15 12 -15 26t11 23l135 138q29 22 64 -4l424 -451q7 -12 7.5 -28t-7.5 -23l-428 -453q-32 -14 -64 0l-131 137l4 -2q-15 12 -15 27z" />
    <glyph glyph-name="question" unicode="?" horiz-adv-x="1003" 
d="M287 153q0 76 52.5 120t123.5 44t121.5 -42.5t50.5 -118.5t-52 -120t-123 -44t-122 42.5t-51 118.5zM25 1040q0 180 127 297t320 117t320.5 -117t127.5 -329q0 -127 -92.5 -233.5t-225.5 -149.5v-213q0 -11 -12.5 -22t-30.5 -11h-207q-18 0 -30.5 11t-12.5 22v411
q0 17 13 27t32 10q192 -11 221 54.5t29 93.5q0 147 -139 147q-54 0 -90.5 -31t-36.5 -84q0 -13 -13 -23.5t-32 -10.5h-225q-18 0 -30.5 10.5t-12.5 23.5z" />
    <glyph glyph-name="at" unicode="@" horiz-adv-x="1677" 
d="M694 717q0 -48 31.5 -82.5t75.5 -34.5t76 35t32 82t-32 82t-76 35t-75.5 -34.5t-31.5 -82.5zM55 716q0 148 53.5 282t149 235t237 161t299.5 60t292.5 -51t237 -143.5t162.5 -233t60 -309.5v-334q0 -14 -13 -25.5t-32 -11.5h-700q-161 0 -269 107t-108 263t109 265
t267 109t267 -109t109 -264q0 -67 -19 -123h84v123q0 136 -62.5 241t-162 158t-225.5 53t-231 -62t-158.5 -163.5t-53.5 -225.5t55 -226.5t159.5 -164t238.5 -61.5h682q18 0 30.5 -10.5t12.5 -24.5v-211q0 -14 -12.5 -25t-30.5 -11h-682q-166 0 -307 59t-236.5 159t-149 233
t-53.5 281z" />
    <glyph glyph-name="A" unicode="A" horiz-adv-x="1167" 
d="M455 412h245l-71 213q-37 126 -49 198q-17 -90 -52 -198zM35 0q-42 0 -42 33q-1 9 45 125t229.5 587.5t271.5 696.5q11 23 40 23t39 -23l543 -1393q3 -9 3 -17t-8 -20t-32 -12h-247q-12 0 -24 7.5t-15 17.5v-2l-56 141h-409l-51 -141v2q-7 -25 -43 -25h-244z" />
    <glyph glyph-name="B" unicode="B" horiz-adv-x="1234" 
d="M805 993q0 143 -180 152h-187v-279h187q91 0 135.5 40t44.5 87zM438 295h187q135 0 167.5 48.5t32.5 88.5t-20.5 68.5t-65 46.5t-93.5 18h-208v-270zM127 35v1362q0 14 12 25.5t31 11.5h256q257 0 308.5 -9.5t96.5 -24t109 -47.5t122 -118.5t58 -218.5q0 -210 -168 -297
q56 -26 96 -65.5t66.5 -98.5t26.5 -107v-22q0 -230 -156.5 -328t-359.5 -98h-455q-19 0 -31 11t-12 24z" />
    <glyph glyph-name="C" unicode="C" horiz-adv-x="1421" 
d="M82 714q0 216 93 384.5t258.5 262t375.5 93.5q144 0 278 -57t234 -154q6 -10 5.5 -28t-9.5 -27l-160 -158q-12 -9 -28.5 -9t-26.5 9q-125 125 -303 125t-289 -122.5t-111 -317.5t117.5 -315.5t289.5 -120.5t296 124q10 9 29 7.5t34 -13.5l156 -155q6 -15 6 -31t-6 -23
q-100 -95 -234 -151.5t-278 -56.5q-201 0 -365.5 89t-263 259t-98.5 386z" />
    <glyph glyph-name="D" unicode="D" horiz-adv-x="1355" 
d="M484 300q20 0 48 2t78 10.5t120 36.5t131 119.5t61 225.5t-52 251t-238 167q-79 21 -130 21h-60v-832q22 -1 42 -1zM127 35v1362q0 14 12.5 25.5t30.5 11.5h227q401 0 621.5 -167t220.5 -538t-218.5 -550t-623.5 -179h-227q-18 0 -30.5 11t-12.5 24z" />
    <glyph glyph-name="E" unicode="E" horiz-adv-x="1204" 
d="M127 35v1362q0 14 12 25.5t31 11.5h891q18 0 30.5 -11.5t12.5 -25.5v-219q0 -14 -12.5 -25.5t-30.5 -11.5h-621v-275h525q18 0 29.5 -11.5t11.5 -25.5v-221q0 -13 -11.5 -24t-29.5 -11h-525v-274h637q19 0 32 -11.5t13 -25.5v-227q0 -13 -13 -24t-32 -11h-907
q-19 0 -31 11t-12 24z" />
    <glyph glyph-name="F" unicode="F" horiz-adv-x="1187" 
d="M127 35v1362q0 14 12 25.5t31 11.5h907q19 0 32 -11.5t13 -25.5v-226q0 -14 -13 -25t-32 -11h-637v-275h525q18 0 29.5 -11.5t11.5 -25.5v-219q0 -14 -11.5 -25.5t-29.5 -11.5h-525v-532q0 -13 -12 -24t-31 -11h-227q-19 0 -31 11t-12 24z" />
    <glyph glyph-name="G" unicode="G" horiz-adv-x="1583" 
d="M88 710q0 164 57.5 301.5t155 234t231 152.5t279.5 56t281 -57.5t233 -153.5q8 -10 7 -28t-11 -27l-160 -158q-12 -10 -29 -9.5t-26 11.5q-124 123 -296 123t-289.5 -118.5t-117.5 -319.5q0 -322 161.5 -380t248.5 -58q170 0 297 133v153h-201q-20 0 -32.5 10t-12.5 25
v211q0 13 13 24t32 11h473q18 0 29.5 -11t11.5 -24v-780q0 -14 -11.5 -25.5t-29.5 -11.5h-198q-18 0 -31.5 10t-13.5 25q-1 15 -2.5 32t-1.5 41q-133 -122 -353 -122q-297 0 -442 142.5t-198.5 283t-53.5 304.5z" />
    <glyph glyph-name="H" unicode="H" horiz-adv-x="1404" 
d="M131 35v1362q0 14 12.5 25.5t30.5 11.5h227q19 0 32 -11.5t13 -25.5v-529h480v529q0 14 12.5 25.5t30.5 11.5h227q19 0 32 -11.5t13 -25.5v-1362q0 -13 -13 -24t-32 -11h-227q-18 0 -30.5 11t-12.5 24v532h-480v-532q0 -13 -13 -24t-32 -11h-227q-18 0 -30.5 11t-12.5 24
z" />
    <glyph glyph-name="I" unicode="I" horiz-adv-x="716" 
d="M29 35v209q0 13 12.5 24t30.5 11h118v876h-110q-18 0 -30.5 11t-12.5 24v207q0 14 12.5 25.5t30.5 11.5h532q19 0 31 -11.5t12 -25.5v-207q0 -13 -12 -24t-31 -11h-108v-876h117q18 0 30.5 -11t12.5 -24v-209q0 -13 -12.5 -24t-30.5 -11h-549q-18 0 -30.5 11t-12.5 24z
" />
    <glyph glyph-name="J" unicode="J" horiz-adv-x="831" 
d="M31 35v227q0 14 12.5 25.5t30.5 11.5h172q92 0 109.5 53t19.5 80v725h-203q-19 0 -31 11t-12 24v207q0 14 12 25.5t31 11.5h475q19 0 30 -11t11 -26v-967q0 -189 -115 -304t-312 -128h-187q-18 0 -30.5 11t-12.5 24z" />
    <glyph glyph-name="K" unicode="K" horiz-adv-x="1323" 
d="M442 35q0 -13 -12.5 -24t-30.5 -11h-227q-19 0 -32 11t-13 24v1362q0 14 13 25.5t32 11.5h227q18 0 30.5 -11.5t12.5 -25.5v-570q92 115 263.5 324.5t218.5 267.5q15 15 34 15h285q40 0 44 -34q0 -12 -11 -24l-545 -671l549 -648q11 -12 11 -24q-5 -33 -44 -33h-299
q-6 0 -19 5.5t-16 8.5l-387 480l-18 -23v2q-64 -72 -66 -74v-364z" />
    <glyph glyph-name="L" unicode="L" horiz-adv-x="1026" 
d="M123 35v1362q0 14 12.5 25.5t30.5 11.5h229q18 0 30.5 -11.5t12.5 -25.5v-1098h461q19 0 32 -11.5t13 -25.5v-227q0 -13 -13 -24t-32 -11h-733q-18 0 -30.5 11t-12.5 24z" />
    <glyph glyph-name="M" unicode="M" horiz-adv-x="1875" 
d="M133 35v1364q0 15 10.5 26t30.5 11h234q10 0 22.5 -8t15.5 -15l480 -975l454 975q3 7 17.5 15t23.5 8h230q19 0 32 -11.5t13 -25.5v-1364q0 -13 -13 -24t-32 -11h-226q-19 0 -32 11t-13 24v663q-51 -103 -154.5 -310t-154.5 -310q-1 -6 -15 -14.5t-22 -8.5h-215
q-9 0 -22.5 8t-16.5 15v-2l-334 645v-686q0 -13 -12.5 -24t-30.5 -11h-229q-20 0 -30.5 10.5t-10.5 24.5z" />
    <glyph glyph-name="N" unicode="N" horiz-adv-x="1519" 
d="M129 35v1362q0 14 12.5 25.5t30.5 11.5h231q23 0 35 -15q107 -154 304.5 -434t295.5 -420v832q0 14 12 25.5t31 11.5h226q19 0 31 -11.5t12 -25.5v-1362q0 -13 -12 -24t-31 -11h-230q-24 0 -35 14q-59 84 -267.5 383t-330.5 473v-835q0 -13 -12.5 -24t-30.5 -11h-229
q-18 0 -30.5 11t-12.5 24z" />
    <glyph glyph-name="O" unicode="O" horiz-adv-x="1306" 
d="M395 910q0 -102 69.5 -169t168.5 -67t167 67t68 169t-69 172.5t-167 70.5t-167.5 -70.5t-69.5 -172.5zM135 35v225q0 14 12 25.5t31 11.5h897q19 0 32 -11.5t13 -25.5v-225q0 -13 -13 -24t-32 -11h-897q-19 0 -31 11t-12 24zM82 892q0 128 44 227.5t117.5 172
t175.5 115.5t232 43t256.5 -72.5t200.5 -197t74 -270.5t-74 -268.5t-201 -193.5t-275 -71t-275 71t-201 193.5t-74 250.5z" />
    <glyph glyph-name="P" unicode="P" horiz-adv-x="1193" 
d="M807 990q0 48 -28.5 96.5t-153.5 48.5h-138l168 -267q57 8 104.5 41t47.5 81zM127 1397q0 14 12 25.5t31 11.5h455q155 0 286.5 -74.5t170 -172.5t38.5 -177t-17 -138t-45.5 -100.5t-65.5 -75.5t-102.5 -67t-140.5 -47t-107 -14l-17 -1h-185v-532q0 -13 -12.5 -24
t-30.5 -11h-227q-19 0 -31 11t-12 24v794q0 14 12 25.5t31 11.5h145q-154 240 -188 299v232z" />
    <glyph glyph-name="Q" unicode="Q" horiz-adv-x="1683" 
d="M1227 721q0 176 -122.5 305t-291.5 129q-62 0 -135 -25q512 -559 522 -571q27 77 27 162zM401 721q0 -192 120 -316t292 -124q88 0 184 47l-548 602q-48 -94 -48 -209zM1540 721q0 -228 -113 -404l125 -133q10 -8 10 -26t-14 -25l-164 -158q-10 -7 -19 -7h-12
q-19 2 -34 14l-111 116q-179 -116 -395 -116q-149 0 -283 56.5t-231 154t-154 235.5t-57 274t50.5 300t234.5 308t440 144q157 0 293.5 -59t231 -159t148.5 -234t54 -281z" />
    <glyph glyph-name="R" unicode="R" horiz-adv-x="1253" 
d="M809 1001q0 134 -182 134h-129l168 -267q143 10 143 133zM1124 1010q0 -308 -282 -404l344 -553v2q7 -11 7 -21q-4 -34 -40 -34h-268q-10 0 -23 6.5t-16 13.5l2 -2l-344 549h-62v-532q0 -13 -12 -24t-31 -11h-227q-18 0 -30.5 11t-12.5 24v794q0 14 12.5 25.5t30.5 11.5
h147q-16 26 -46.5 71.5t-39.5 59.5l-104 168v232q0 14 12.5 25.5t30.5 11.5h455q156 0 287.5 -74t170.5 -172.5t39 -177.5z" />
    <glyph glyph-name="S" unicode="S" horiz-adv-x="1112" 
d="M119 449h227q17 0 30 -11.5t13 -25.5q3 -63 48 -98t109 -35t109 38.5t45 102.5t-47.5 105t-107.5 46q-112 0 -227 53t-178.5 150t-63.5 213q0 220 142 343.5t332 123.5q191 0 324 -120t136 -308q0 -12 -13 -23.5t-32 -11.5h-224q-16 0 -30.5 12t-14.5 23
q-3 62 -45.5 95.5t-107.5 33.5t-109.5 -40.5t-44.5 -108.5t46 -105t110 -37q117 0 229 -52t176 -156t64 -222q0 -223 -141 -338.5t-328 -115.5q-203 5 -334.5 119t-134.5 313q0 14 12.5 25.5t30.5 11.5z" />
    <glyph glyph-name="T" unicode="T" horiz-adv-x="917" 
d="M6 1190v207q0 14 12.5 25.5t30.5 11.5h799q19 0 32 -11.5t13 -25.5v-207q0 -13 -13 -24t-32 -11h-242v-1120q0 -13 -13 -24t-32 -11h-225q-18 0 -30.5 11t-12.5 24v1120h-244q-18 0 -30.5 11t-12.5 24z" />
    <glyph glyph-name="U" unicode="U" horiz-adv-x="1515" 
d="M442 584q0 -80 43 -164q79 -141 255 -141q222 0 259 136.5t37 170.5v569h-594v-571zM129 584v813q0 14 12.5 25.5t30.5 11.5h1133q19 0 31 -11.5t12 -25.5v-813q0 -64 -41.5 -235.5t-212 -270t-352.5 -98.5t-322.5 83t-218.5 228q-30 61 -51 147t-21 146z" />
    <glyph glyph-name="V" unicode="V" horiz-adv-x="1177" 
d="M397 1163l185 -524l184 524h-369zM37 1434h1087q22 0 32 -13t10 -21t-3 -16l-542 -1419q-9 -23 -39 -23t-39 23l-547 1419q-8 16 6 33t35 17z" />
    <glyph glyph-name="W" unicode="W" horiz-adv-x="2076" 
d="M1139 1434q34 0 41 -25v2l272 -727l258 725q8 25 41 25h244q25 0 35 -12t9 -22q0 -8 -3 -16l-547 -1417q-9 -23 -38 -23t-38 23l-389 1014q-92 -247 -218 -574t-169 -440q-9 -23 -41 -23t-39 25l2 -2l-543 1417q-2 6 -2 15t10 22t31 13h246q14 0 26 -7.5t13 -17.5
q48 -131 132.5 -369t125.5 -352l274 723v-2q7 25 39 25h228z" />
    <glyph glyph-name="X" unicode="X" horiz-adv-x="1380" 
d="M49 0q-38 0 -42 34q0 12 11 23h-2l467 660q-106 145 -229 321l-238 338h2q-10 12 -10 21t8 23t33 14h279q25 0 37 -15l311 -436l311 436q15 15 37 15h279q29 0 39 -20q4 -6 4 -16t-11 -22h2l-471 -659q43 -61 173 -241t197 -276.5t101 -142.5h-2q11 -12 11 -21
q0 -8 -7 -22t-36 -14h-279q-26 0 -37 14l-311 437l-311 -437q-14 -14 -37 -14h-279z" />
    <glyph glyph-name="Y" unicode="Y" horiz-adv-x="1320" 
d="M16 1434h277q25 0 37 -15q61 -88 171.5 -239t141.5 -195l311 434q15 15 35 15h279q28 0 38 -20q5 -6 5 -16t-11 -22h3l-504 -706v-635q0 -13 -12 -24t-31 -11h-228q-18 0 -30.5 11t-12.5 24v635q-45 65 -138 193.5t-134 186.5t-117.5 166.5t-113.5 159.5h2q-11 12 -11 22
t5 16q10 20 38 20z" />
    <glyph glyph-name="Z" unicode="Z" horiz-adv-x="972" 
d="M31 1171v226q0 14 12.5 25.5t30.5 11.5h792q25 0 37 -15.5t4 -34.5q-71 -180 -217.5 -542.5t-218.5 -542.5h397q19 0 32 -11.5t13 -25.5v-227q0 -13 -13 -24t-32 -11h-792q-25 0 -36 14.5t-3 34.5l434 1086h-397q-18 0 -30.5 11t-12.5 25z" />
    <glyph glyph-name="bracketleft" unicode="[" horiz-adv-x="704" 
d="M119 35v1362q0 14 12 25.5t29 11.5h454q19 0 32 -11.5t13 -25.5v-226q0 -14 -12.5 -25t-32.5 -11h-180v-836h180q19 0 32 -11.5t13 -25.5v-227q0 -13 -13 -24t-32 -11h-454q-17 0 -29 11t-12 24z" />
    <glyph glyph-name="backslash" unicode="\" horiz-adv-x="929" 
d="M10 1434h234q10 0 23 -8t16 -15l630 -1364q8 -19 -2.5 -34t-33.5 -15h-234q-9 0 -22.5 7.5t-16.5 14.5l-631 1364q-8 18 3 34t34 16z" />
    <glyph glyph-name="bracketright" unicode="]" horiz-adv-x="720" 
d="M43 35v227q0 14 12 25.5t31 11.5h182v836h-182q-19 0 -31 11t-12 25v226q0 14 12 25.5t31 11.5h455q19 0 30 -11t11 -26v-1362q0 -13 -11 -24t-30 -11h-455q-19 0 -31 11t-12 24z" />
    <glyph glyph-name="asciicircum" unicode="^" horiz-adv-x="915" 
d="M721 845q-17 0 -29 9l-262 256l-123 -121l-143 -135q-12 -9 -27.5 -9t-27.5 9l-125 119q-14 11 -14 28t12 27l417 395q12 9 30.5 8.5t29.5 -8.5l418 -393q13 -11 12.5 -28.5t-12.5 -28.5l-127 -119q-12 -9 -29 -9z" />
    <glyph glyph-name="underscore" unicode="_" horiz-adv-x="1103" 
d="M47 35q0 13 13 24t32 11h899q19 0 31 -11t12 -24v-189q0 -14 -11.5 -24t-31.5 -10h-899q-20 0 -32.5 10t-12.5 24v189z" />
    <glyph glyph-name="grave" unicode="`" horiz-adv-x="542" 
d="M0 1284q-5 16 6 31v-2l111 176q9 15 61 -4l340 -195h-4q19 -8 24.5 -22.5t-6.5 -28.5v2l-98 -166q-15 -18 -65 0l-346 189q-18 4 -23 20z" />
    <glyph glyph-name="a" unicode="a" horiz-adv-x="1169" 
d="M451 410h241l-69 213q-40 136 -50 196q-17 -92 -51 -196zM35 0q-42 0 -42 33q0 8 45 124t226 585t268 694q10 23 40 23t40 -23l537 -1387q3 -9 3 -17t-8 -20t-32 -12h-244q-12 0 -24 7.5t-15 17.5v-2l-55 141h-405l-52 -141v2q-8 -25 -41 -25h-241z" />
    <glyph glyph-name="b" unicode="b" horiz-adv-x="1234" 
d="M438 850h178q120 0 150.5 54t30.5 92t-18.5 66.5t-59.5 46t-85 17.5h-196v-276zM438 291h178q133 0 166 48.5t33 88.5t-24 79.5t-77.5 51.5t-97.5 12h-178v-280zM131 35v1347q0 14 11.5 24.5t29.5 10.5h444q163 0 326.5 -87t163.5 -322q0 -195 -166 -285
q54 -26 92.5 -66.5t64 -101.5t25.5 -113v-22q0 -229 -154.5 -324.5t-351.5 -95.5h-444q-18 0 -29.5 11t-11.5 24z" />
    <glyph glyph-name="c" unicode="c" horiz-adv-x="1421" 
d="M86 726q0 186 90.5 354t253.5 263t369 95q143 0 274.5 -55t229.5 -150q5 -9 5 -26t-10 -27l-155 -156q-12 -9 -28.5 -9t-27.5 9q-127 123 -299 123t-280.5 -127.5t-108.5 -319.5t115 -309t282 -117t291 121q11 9 27.5 9t28.5 -9l155 -157q10 -9 10 -27.5t-10 -28.5
q-208 -202 -500 -202q-145 0 -275 51.5t-227 144t-153.5 228.5t-56.5 322z" />
    <glyph glyph-name="d" unicode="d" horiz-adv-x="1355" 
d="M440 285h30q186 0 313.5 102.5t127.5 325.5q0 352 -178 388t-256 36h-37v-852zM131 35v1347q0 14 12.5 24.5t30.5 10.5h223q289 0 461 -76.5t267.5 -226t95.5 -401.5q0 -351 -214.5 -532t-609.5 -181h-223q-18 0 -30.5 11t-12.5 24z" />
    <glyph glyph-name="e" unicode="e" horiz-adv-x="1204" 
d="M131 35v1347q0 14 11.5 24.5t29.5 10.5h891q20 0 32.5 -10.5t12.5 -24.5v-219q0 -13 -13 -24t-32 -11h-625v-280h514q19 0 30 -10.5t11 -24.5v-215q0 -13 -11 -24t-30 -11h-514v-276h625q20 0 32.5 -10.5t12.5 -24.5v-217q0 -13 -13 -24t-32 -11h-891q-18 0 -29.5 11
t-11.5 24z" />
    <glyph glyph-name="f" unicode="f" horiz-adv-x="1187" 
d="M131 35v1335q0 14 11.5 25.5t29.5 11.5h891q19 0 32 -11.5t13 -25.5v-221q0 -14 -13 -25.5t-32 -11.5h-625v-264h514q19 0 30 -10.5t11 -24.5v-221q0 -13 -11 -24t-30 -11h-514v-522q0 -13 -11.5 -24t-31.5 -11h-223q-18 0 -29.5 11t-11.5 24z" />
    <glyph glyph-name="g" unicode="g" horiz-adv-x="1583" 
d="M94 702q0 162 56 298.5t152 232t228 150.5t277 55t277 -55.5t231 -151.5q8 -10 7 -27t-11 -26l-158 -158q-12 -9 -27.5 -9t-27.5 9q-122 125 -292 125t-285 -118t-115 -318q0 -322 158.5 -378.5t244.5 -56.5q173 0 299 132v161h-320q-18 0 -30.5 11t-12.5 24v199
q0 14 12.5 25.5t30.5 11.5h582q18 0 30.5 -11.5t12.5 -25.5v-770q0 -13 -12.5 -24t-30.5 -11h-196q-19 0 -31.5 9.5t-12.5 24.5t-2 30.5t-2 39.5q-75 -65 -156.5 -94t-207.5 -29t-251.5 49.5t-218 141.5t-145.5 232t-53 302z" />
    <glyph glyph-name="h" unicode="h" horiz-adv-x="1404" 
d="M135 35v1347q0 14 12.5 24.5t30.5 10.5h223q18 0 30.5 -10.5t12.5 -24.5v-518h469v518q0 14 12.5 24.5t30.5 10.5h226q17 0 29 -10.5t12 -24.5v-1347q0 -13 -12 -24t-29 -11h-226q-18 0 -30.5 11t-12.5 24v540h-469v-540q0 -13 -12.5 -24t-30.5 -11h-223q-18 0 -30.5 11
t-12.5 24z" />
    <glyph glyph-name="i" unicode="i" horiz-adv-x="573" 
d="M123 35v1347q0 14 12.5 24.5t30.5 10.5h223q19 0 31 -10.5t12 -24.5v-1347q0 -13 -12 -24t-31 -11h-223q-18 0 -30.5 11t-12.5 24z" />
    <glyph glyph-name="j" unicode="j" horiz-adv-x="831" 
d="M35 35v223q0 14 12.5 24.5t30.5 10.5h168q87 0 105.5 52t18.5 65l1 14v958q0 14 11 24.5t30 10.5h225q18 0 29.5 -10.5t11.5 -24.5v-958q0 -173 -83 -266.5t-179.5 -124t-145.5 -32.5l-24 -1h-168q-18 0 -30.5 11t-12.5 24z" />
    <glyph glyph-name="k" unicode="k" horiz-adv-x="1323" 
d="M131 35v1347q0 14 12.5 24.5t32.5 10.5h223q19 0 31 -10.5t12 -24.5v-575l476 598q24 12 32 12h281q29 1 37 -11t7 -22q0 -10 -11 -24l-537 -664l541 -639q11 -13 11 -23q1 -10 -7 -22t-37 -12h-293q-6 0 -19 5.5t-16 8.5l-385 473q-4 -4 -9.5 -11.5t-10.5 -12.5v2
q-29 -39 -60 -70v-360q0 -13 -12 -24t-31 -11h-223q-19 0 -32 11t-13 24z" />
    <glyph glyph-name="l" unicode="l" horiz-adv-x="1026" 
d="M127 35v1347q0 14 12 24.5t31 10.5h223q18 0 30.5 -10.5t12.5 -24.5v-1089h451q18 0 30.5 -10.5t12.5 -24.5v-223q0 -13 -12.5 -24t-30.5 -11h-717q-19 0 -31 11t-12 24z" />
    <glyph glyph-name="m" unicode="m" horiz-adv-x="1875" 
d="M137 35v1347q0 14 12.5 24.5t30.5 10.5h228q10 0 22.5 -7t15.5 -13l469 -969l447 969q3 7 17 13.5t24 6.5h225q19 0 31 -10.5t12 -24.5v-1347q0 -13 -12 -24t-31 -11h-221q-19 0 -32 11t-13 24v672l-301 -631q-3 -7 -16 -15t-23 -8h-211q-10 0 -22 7.5t-15 15.5l-328 655
v-696q0 -13 -12 -24t-31 -11h-223q-18 0 -30.5 11t-12.5 24z" />
    <glyph glyph-name="n" unicode="n" horiz-adv-x="1519" 
d="M135 1384q0 35 41 35h225q26 0 35 -12l588 -864v841q0 14 12.5 24.5t30.5 10.5h221q19 0 31 -10.5t12 -24.5v-1349q0 -13 -12 -24t-31 -11h-223q-26 0 -37 14l-586 854v-833q0 -13 -12.5 -24t-30.5 -11h-223q-20 0 -30.5 10.5t-10.5 24.5v1349z" />
    <glyph glyph-name="o" unicode="o" horiz-adv-x="1632" 
d="M397 708q0 -84 25 -161.5t72.5 -140t123.5 -99.5t160 -37t175.5 34.5t159 148t67.5 254.5q0 217 -120 329.5t-272 112.5q-94 0 -170 -37.5t-123.5 -100.5t-72.5 -141t-25 -162zM82 711q0 110 42.5 270.5t215.5 308.5t448 148q395 0 550 -249t155 -478.5t-119 -420.5
t-284.5 -249.5t-302.5 -58.5t-253.5 41t-198.5 111.5t-140 164t-85.5 198t-27.5 214.5z" />
    <glyph glyph-name="p" unicode="p" horiz-adv-x="1187" 
d="M438 846h180q66 0 94.5 14t58.5 36t30 73t-31.5 103t-151.5 52h-180v-278zM131 31v1351q0 14 11.5 24.5t29.5 10.5h446q178 0 299.5 -75t156 -173.5t34.5 -185.5t-26 -157.5t-64.5 -114t-134 -101t-265.5 -57.5h-180v-522q0 -13 -11.5 -24t-31.5 -11h-223q-18 0 -29.5 11
t-11.5 24z" />
    <glyph glyph-name="q" unicode="q" horiz-adv-x="1693" 
d="M397 726q0 -100 29 -179.5t80 -140.5t127.5 -97.5t162.5 -36.5t167 37l-43 45l-74 90q0 16 12 27l158 158q28 17 55 0l100 -101q33 92 33 196t-45.5 201.5t-140 159.5t-218.5 62t-217 -61.5t-139.5 -160.5t-46.5 -199zM88 711q0 145 50 277t140.5 232t225.5 159t292 59
t291.5 -59.5t226.5 -159t144.5 -232t52.5 -255.5q0 -242 -114 -431l116 -119q12 -9 12 -27t-12 -28l-155 -154q-10 -9 -26 -9t-27 9l-119 117q-181 -110 -387 -110q-156 0 -290.5 60t-225.5 160.5t-143 233t-52 277.5z" />
    <glyph glyph-name="r" unicode="r" horiz-adv-x="1226" 
d="M614 840q183 0 183 147q0 42 -22.5 73.5t-69.5 49.5t-91 18h-176v-288h176zM129 35v1347q0 14 11.5 24.5t29.5 10.5h444q130 0 236.5 -37t181 -129.5t74.5 -261.5q0 -282 -250 -381l54 -117q54 -117 79 -169l125 -273q8 -21 -2 -35t-35 -14h-246q-9 0 -22 8t-16 15
l-250 544h-105v-532q0 -13 -13 -24t-32 -11h-223q-18 0 -29.5 11t-11.5 24z" />
    <glyph glyph-name="s" unicode="s" horiz-adv-x="1112" 
d="M123 438h223q16 0 29.5 -9t13.5 -23q3 -63 46 -97.5t105 -34.5t107 37t45 99t-47.5 104t-103.5 47q-115 -1 -225 51t-173 152t-63 230t65.5 233.5t170 156t225.5 52.5q191 0 321 -117t133 -301q0 -14 -12.5 -24.5t-30.5 -10.5h-221q-17 0 -30 10.5t-13 24.5
q-3 60 -45 93.5t-105 33.5t-106 -39.5t-43 -108.5t45 -110t107 -41q113 0 223 -50t172.5 -153t62.5 -219q0 -219 -137 -331.5t-321 -112.5q-200 5 -329 117t-132 309q0 32 43 32z" />
    <glyph glyph-name="t" unicode="t" horiz-adv-x="917" 
d="M879 1165q0 -32 -43 -32h-238v-1098q0 -13 -11 -24t-30 -11h-223q-20 0 -30.5 10.5t-10.5 24.5v1098h-240q-19 0 -31 9t-12 23v205q0 14 12.5 25.5t30.5 11.5h783q19 0 31 -11.5t12 -25.5v-205z" />
    <glyph glyph-name="u" unicode="u" horiz-adv-x="1398" 
d="M131 463v907q0 14 12.5 25.5t30.5 11.5h223q18 0 30.5 -11.5t12.5 -25.5v-903q13 -88 80 -140.5t159 -52.5t161 49.5t69 139.5v907q0 14 12.5 25.5t30.5 11.5h226q17 0 29 -11.5t12 -25.5v-907q0 -149 -72 -259.5t-194 -167t-275 -56.5t-276.5 58t-197 169t-73.5 256z
" />
    <glyph glyph-name="v" unicode="v" horiz-adv-x="1169" 
d="M1 1384q1 8 9 21q8 12 31 12h240q14 0 25.5 -6.5t26.5 -50.5t102 -285.5t138 -386.5q28 78 118 325t138 382q1 9 13 15.5t26 6.5h240q24 -1 35 -15t4 -34l-535 -1382q-10 -20 -38 -20t-39 20l-531 1382q-3 8 -3 16z" />
    <glyph glyph-name="w" unicode="w" horiz-adv-x="2058" 
d="M1960 1417q41 0 41 -32q0 -8 -4 -17l-535 -1399q-9 -25 -37.5 -25t-38.5 25l-380 1008q-59 -160 -186 -496.5t-191 -511.5q-11 -25 -40 -25t-40 25l-531 1399q-3 8 -3 16t10 20t32 13h240q14 0 26 -6.5t13 -15.5q45 -126 127 -353.5t127 -353.5l256 707q7 22 37 22h247
q32 0 39 -22q44 -126 127 -353.5t127 -353.5l256 707q7 22 39 22h242z" />
    <glyph glyph-name="x" unicode="x" horiz-adv-x="1380" 
d="M57 0q-43 0 -43 34q0 11 9 23h-3l461 645q-79 110 -461 658h3q-9 12 -9 21t7 22t36 14h271q25 0 37 -12q60 -88 174 -251t133 -191l303 442q12 12 35 12h274q38 -2 42 -36q0 -10 -7 -21l-463 -658q37 -48 126.5 -175.5t336.5 -469.5q7 -11 7 -21t-9 -23t-33 -13h-274
q-27 0 -35 14q-52 75 -151.5 220.5t-151.5 220.5q-50 -70 -153.5 -220t-153.5 -221q-14 -14 -37 -14h-271z" />
    <glyph glyph-name="y" unicode="y" horiz-adv-x="1341" 
d="M43 1417h272q23 0 35 -12q57 -84 162 -232t145 -206l306 438q20 12 32 12h275q28 0 36 -13q8 -12 7 -22q0 -10 -10 -22h2l-494 -703v-622q0 -13 -12.5 -24t-30.5 -11h-223q-19 0 -31 11t-12 24v622l-496 703h2q-9 12 -9 22t5 16q10 19 39 19z" />
    <glyph glyph-name="z" unicode="z" horiz-adv-x="1193" 
d="M1102 293q41 0 41 -35v-223q0 -14 -10.5 -24.5t-30.5 -10.5h-1084q-24 0 -33 12t-9 22t8 21v-2l653 1071h-561q-17 0 -29 11t-12 24v223q0 14 12 24.5t29 10.5h1026q26 -1 36 -11t10 -18t-3 -14l-660 -1081h617z" />
    <glyph glyph-name="braceleft" unicode="{" horiz-adv-x="708" 
d="M-65 717q0 23 28 33h-2l225 110v537q0 14 13 25.5t32 11.5h381q19 0 30 -11t11 -26v-226q0 -15 -11 -25.5t-30 -10.5h-110v-836h110q19 0 30 -11t11 -26v-227q0 -13 -11 -24t-30 -11h-381q-19 0 -32 11t-13 24v536q-82 41 -136.5 70t-88.5 43h2q-28 10 -28 33z" />
    <glyph glyph-name="bar" unicode="|" horiz-adv-x="575" 
d="M102 35v1362q0 14 13 25.5t32 11.5h228q18 0 30.5 -11.5t12.5 -25.5v-1362q0 -13 -12.5 -24t-30.5 -11h-228q-19 0 -32 11t-13 24z" />
    <glyph glyph-name="braceright" unicode="}" horiz-adv-x="737" 
d="M45 35v227q0 15 11.5 26t31.5 11h109v836h-109q-20 0 -31.5 10.5t-11.5 25.5v226q0 15 11.5 26t31.5 11h379q19 0 32 -11.5t13 -25.5v-537q14 -8 84 -39q107 -57 143 -71h-2q26 -10 26 -33t-26 -33h2l-227 -111v-538q0 -13 -13 -24t-32 -11h-379q-20 0 -31.5 11t-11.5 24
z" />
    <glyph glyph-name="asciitilde" unicode="~" horiz-adv-x="950" 
d="M296 846q101 0 212 -51l10 -2q48 -21 66 -21q25 0 45 47q7 7 23 13.5t28 3.5l188 -56q18 -1 28.5 -17t2.5 -28v2q-40 -123 -107.5 -178t-163.5 -55t-212 47l-23 10l-31 8q-12 4 -24 8.5t-14 4.5q-12 0 -23 -41q-20 -35 -57 -29l-189 51q-14 3 -23.5 15.5t-8.5 25.5
q23 117 97.5 179.5t175.5 62.5z" />
    <glyph glyph-name="uni00A0" unicode="&#xa0;" horiz-adv-x="706" 
 />
    <glyph glyph-name="exclamdown" unicode="&#xa1;" horiz-adv-x="565" 
d="M115 20v965q0 14 13 25.5t32 11.5h227q18 0 30.5 -11.5t12.5 -25.5v-965q0 -14 -12.5 -25t-30.5 -11h-227q-20 0 -32.5 11t-12.5 25zM100 1270q0 67 50 115.5t122 48.5t123 -49t51 -115t-51 -116t-123 -50t-122 49.5t-50 116.5z" />
    <glyph glyph-name="cent" unicode="&#xa2;" horiz-adv-x="1187" 
d="M385 714q0 -174 127 -257v516q-59 -42 -93 -109.5t-34 -149.5zM70 717q0 201 123.5 357.5t318.5 209.5v141q0 14 12.5 25.5t30.5 11.5h176q19 0 31 -11.5t12 -25.5v-125q181 -32 326 -167q25 -40 -2 -72l-125 -125q-23 -23 -49 -21t-45 27l4 -2q-61 50 -109 66v-580
q64 25 108 69t87 7l131 -133q25 -40 -2 -72q-57 -57 -145.5 -101t-178.5 -63v-98q0 -14 -12 -25.5t-31 -11.5h-176q-18 0 -30.5 11.5t-12.5 25.5v112q-195 53 -318.5 211t-123.5 359z" />
    <glyph glyph-name="sterling" unicode="&#xa3;" horiz-adv-x="1212" 
d="M-18 508v240q0 14 12.5 23t32.5 9h174l6 19v-2q27 71 31 77v-2q119 243 337 394q221 140 361 154t154 14t26 -11.5t12 -25.5v-236q0 -14 -12.5 -25.5t-24.5 -11.5t-98.5 -6.5t-254.5 -121.5q-105 -73 -187 -216h151q20 0 33 -9t13 -23v-240q0 -15 -13 -25t-33 -10h-258
q-22 -141 -24 -164h663q18 0 30.5 -11.5t12.5 -25.5v-237q0 -13 -12.5 -24t-30.5 -11h-948q-19 0 -31 11t-12 24v119q0 161 23 319h-88q-20 0 -32.5 10t-12.5 25z" />
    <glyph glyph-name="yen" unicode="&#xa5;" horiz-adv-x="1310" 
d="M16 1434h277q25 0 37 -15q196 -288 313 -456l311 456q15 15 35 15h279q28 0 38.5 -19.5t-6.5 -38.5h3l-398 -555h101q18 0 30.5 -11.5t12.5 -25.5v-159q0 -14 -12.5 -25.5t-30.5 -11.5h-207v-84h207q18 0 30.5 -11.5t12.5 -25.5v-154q0 -14 -12.5 -25.5t-30.5 -11.5h-207
v-241q0 -13 -12 -24t-31 -11h-228q-18 0 -30.5 11t-12.5 24v241h-213q-19 0 -32 11.5t-13 25.5v154q0 14 13 25.5t32 11.5h213v84h-215q-19 0 -32 11.5t-13 25.5v159q0 14 13 25.5t32 11.5h101l-389 555h2q-17 19 -6.5 38.5t38.5 19.5z" />
    <glyph glyph-name="section" unicode="&#xa7;" horiz-adv-x="851" 
d="M309 715q0 -54 41 -74h-2q38 -14 67 -14t65 17q36 18 36 72t-43 75h4q-38 14 -61 14t-72 -17h4q-39 -19 -39 -73zM309 299q-1 -88 103 -88t104 89t-104 89q-31 0 -84.5 12t-91.5 29q-81 42 -130.5 119t-49.5 183t75 194q-76 82 -76 190t72 216.5t173.5 119t111.5 10.5
t57 -4.5t123 -41.5q75 -37 125.5 -113.5t50.5 -169.5q0 -14 -12.5 -24.5t-30.5 -10.5h-166q-19 0 -31 10.5t-12 24.5q0 55 -41 73q-16 9 -57 15l-8 2l-4 -2h-9q-38 -5 -55 -17q-33 -18 -33 -74t41 -73q28 -12 54 -15h8q88 0 174 -39t133 -115t48 -188t-71 -192
q72 -82 72 -192q0 -216 -188 -306q-82 -41 -164 -41q-82 -1 -170 41t-139.5 119.5t-51.5 169.5q0 14 12.5 24.5t32.5 10.5h164q20 0 32.5 -10.5t12.5 -24.5z" />
    <glyph glyph-name="dieresis" unicode="&#xa8;" horiz-adv-x="770" 
d="M424 1282q0 66 52 115t120 49t119 -49t51 -115t-51 -115t-119 -49t-120 49t-52 115zM-2 1282q0 66 51 115t119 49t120 -49t52 -115t-52 -115t-120 -49t-119 49t-51 115z" />
    <glyph glyph-name="copyright" unicode="&#xa9;" horiz-adv-x="1417" 
d="M383 816q0 125 94.5 217.5t226.5 92.5t224 -90q9 -10 9 -27t-9 -26l-72 -65q-27 -20 -51 0q-50 47 -106 47t-96 -44t-40 -105t39.5 -103.5t95.5 -42.5t105 43q11 9 26 9t27 -9l72 -64q9 -11 9 -27t-9 -24q-92 -92 -224 -92t-226.5 92.5t-94.5 217.5zM299 814
q0 -163 114 -279.5t274 -116.5t274 116t114 280t-114 280t-274 116t-274 -116.5t-114 -279.5zM61 834q0 147 83 289.5t226.5 226.5t315.5 84t317 -84t228.5 -226.5t83.5 -289.5t-49.5 -261t-133.5 -196.5t-201 -131t-245 -48.5t-244 48.5t-199.5 131t-132.5 196.5t-49 261z
" />
    <glyph glyph-name="guillemotleft" unicode="&#xab;" horiz-adv-x="1032" 
d="M468 659q0 13 7 21l350 453q11 10 29 13t31 -7l145 -115q33 -26 6 -53l4 2l-227 -316l234 -280q19 -25 -9 -51h2l-149 -121q-26 -19 -57 4l-359 428q-7 9 -7 22zM0 659q0 13 6 21q64 80 185 236t169 217q10 10 30 13t32 -7l145 -115q25 -25 6 -51l-241 -311l250 -283h-2
q27 -27 -7 -53h2l-147 -121q-27 -18 -59 4l-363 428q-6 9 -6 22z" />
    <glyph glyph-name="uni00AD" unicode="&#xad;" horiz-adv-x="907" 
d="M47 616v207q0 13 13 25t32 12h684q20 0 32 -11t11 -26v-207q1 -14 -11 -24t-32 -10h-684q-19 0 -32 10t-13 24z" />
    <glyph glyph-name="registered" unicode="&#xae;" horiz-adv-x="1382" 
d="M621 874h63q39 0 56.5 25t1.5 50.5t-58 25.5h-63v-101zM451 1087q0 35 41 35h192q109 0 175.5 -55.5t66.5 -144.5q0 -44 -27.5 -87.5t-79.5 -74.5l107 -217q8 -19 -3.5 -34t-37.5 -15h-101q-29 0 -43 28l-90 213h-18v-205q0 -14 -12.5 -25t-30.5 -11h-98
q-20 0 -30.5 10.5t-10.5 25.5v557zM242 813q0 -120 58.5 -222.5t158.5 -162t217 -59.5q181 0 309.5 130.5t128.5 314.5t-127.5 313.5t-308.5 129.5t-308.5 -130t-127.5 -314zM-10 813q0 138 54 263.5t145 217.5t218 146.5t269 54.5t270 -54.5t220 -146.5t146 -217.5
t54 -263.5t-54 -263.5t-146 -216.5t-220 -144.5t-270 -53.5t-269 53.5t-218 144.5t-145 216.5t-54 263.5z" />
    <glyph glyph-name="degree" unicode="&#xb0;" horiz-adv-x="747" 
d="M264 1128q0 -44 29 -74t69 -30t70.5 30t30.5 74t-30.5 77.5t-70.5 33.5t-69 -33.5t-29 -77.5zM23 1129q0 136 100 235.5t240 99.5t241 -99.5t101 -235.5t-101 -234t-241 -98t-240 98t-100 234z" />
    <glyph glyph-name="plusminus" unicode="&#xb1;" horiz-adv-x="1060" 
d="M147 0v244h715v-244h-715zM59 680v197q0 14 11.5 24t31.5 10h260v269q0 13 12 23.5t32 10.5h202q19 0 31 -10.5t12 -23.5v-269h260q18 0 29.5 -10t11.5 -24v-197q0 -12 -12 -23.5t-29 -11.5h-260v-272q0 -14 -12 -25.5t-31 -11.5h-202q-20 0 -32 11t-12 26v272h-260
q-19 0 -31 11.5t-12 23.5z" />
    <glyph glyph-name="uni00B2" unicode="&#xb2;" horiz-adv-x="698" 
d="M344 1198q0 51 -42 51q-18 0 -32 -12.5t-14 -32.5t-13 -30.5t-32 -10.5h-129q-19 0 -31 11t-12 24q0 109 75 180.5t191 71.5t191 -68.5t75 -165.5t-63 -182l-178 -254h211q17 0 29 -9.5t12 -22.5v-132q0 -13 -12 -23.5t-29 -10.5h-459q-19 0 -31 10.5t-12 23.5v127
l276 387q29 42 29 68z" />
    <glyph glyph-name="uni00B3" unicode="&#xb3;" horiz-adv-x="681" 
d="M600 1183q0 -101 -68 -169q74 -68 74 -180t-82 -182t-198 -70t-194.5 77t-78.5 187q0 12 12 23.5t31 11.5h129q19 0 32 -11.5t13 -31.5t16 -38t40 -18t42.5 19.5t18.5 48.5t-14 51.5t-37 22.5h-55q-19 0 -31 9.5t-12 24.5v109q0 14 12.5 25.5t30.5 11.5h57q22 0 33.5 20
t11.5 46t-18 44.5t-41 18.5t-40.5 -18.5t-17.5 -38.5t-13 -30.5t-32 -10.5h-125q-19 0 -31 11t-12 25q0 107 79 185t192 78t194.5 -75t81.5 -176z" />
    <glyph glyph-name="acute" unicode="&#xb4;" horiz-adv-x="569" 
d="M-1 1281q5 16 24 22q66 37 186.5 102t173.5 94q52 19 61 4l115 -182q4 -10 -3 -23.5t-19 -19.5h2l-365 -191q-55 -19 -68 -2l-100 168q-12 12 -7 28z" />
    <glyph glyph-name="periodcentered" unicode="&#xb7;" horiz-adv-x="417" 
d="M20 724q0 66 52 116.5t123 50.5t121.5 -49.5t50.5 -117.5t-50.5 -116.5t-121.5 -48.5t-123 49.5t-52 115.5z" />
    <glyph glyph-name="cedilla" unicode="&#xb8;" horiz-adv-x="878" 
d="M268 -68q45 0 45 -50q0 -28 28.5 -59.5t68.5 -31.5t69 31t29 75t-29 74.5t-57 30.5t-40.5 11t-12.5 24v188q0 33 43 33q152 0 261 -107t109 -255t-109 -255.5t-262 -107.5t-261.5 107t-108.5 256q0 14 12.5 25t30.5 11h184z" />
    <glyph glyph-name="uni00B9" unicode="&#xb9;" horiz-adv-x="546" 
d="M360 1434q19 0 32.5 -11.5t13.5 -25.5v-672q0 -14 -13.5 -25.5t-32.5 -11.5h-131q-18 0 -30.5 11.5t-12.5 25.5v465q-8 -4 -25 -8.5t-20 -5.5v2q-15 -6 -32 -1.5t-25 13.5l-47 125q-8 12 -2 25t26 20h-2l181 74h120z" />
    <glyph glyph-name="guillemotright" unicode="&#xbb;" horiz-adv-x="1095" 
d="M1090 659q0 -13 -7 -22q-277 -324 -364 -428q-31 -23 -60 -4l-147 121q-25 22 -6 51q78 94 233 280l-227 316l4 -2q-27 27 6 53l146 115q11 10 30 7t29 -13l356 -453q7 -8 7 -21zM610 659q0 -13 -34 -52t-156 -184q-123 -145 -182 -214q-31 -24 -56 -4l-149 121
q-10 10 -16 22t-3 17l246 294l-229 314l4 -2q-24 28 6 53l147 115q32 20 58 -6l356 -453q8 -8 8 -21z" />
    <glyph glyph-name="questiondown" unicode="&#xbf;" horiz-adv-x="1003" 
d="M324 1278q0 76 52 120t122 44t121 -42.5t51 -118.5t-52 -120.5t-122 -44.5t-121 43t-51 119zM41 419q0 135 91.5 241t223.5 149v213q0 12 11.5 22.5t31.5 10.5h207q19 0 31 -10.5t12 -22.5v-414q0 -15 -13.5 -25t-33.5 -10q-190 11 -219 -54t-29 -93q0 -147 140 -147
q54 0 90.5 31t36.5 83q0 13 12.5 24t30.5 11h227q20 0 30.5 -10.5t10.5 -24.5q0 -180 -126 -296.5t-312 -116.5q-274 0 -363.5 152t-89.5 287z" />
    <glyph glyph-name="Agrave" unicode="&#xc0;" 
d="M436 412h246l-72 213q-37 126 -49 198q-18 -97 -51 -198zM303 1697.5q-5 16.5 6 31.5v-3l111 177q9 14 61 -5l340 -194h-4q19 -8 25 -22.5t-6 -28.5v2l-99 -166q-15 -18 -65 0l-346 188q-18 4 -23 20.5zM260 0h-244q-25 0 -36 14.5t-3 34.5q88 225 271.5 696.5
t271.5 696.5q10 23 39.5 23t40.5 -23l543 -1393q8 -19 -3 -34t-34 -15h-248q-12 0 -24 7.5t-15 17.5v-2l-55 141h-410l-51 -141v2q-7 -25 -43 -25z" />
    <glyph glyph-name="Aacute" unicode="&#xc1;" 
d="M436 412h246l-72 213q-37 126 -49 198q-18 -97 -51 -198zM283.5 1682.5q4.5 15.5 23.5 21.5q67 37 188.5 103t172.5 94q52 19 61 4l115 -183q4 -10 -3.5 -23.5t-19.5 -19.5h2l-364 -190q-55 -19 -68 -2l-100 168q-12 12 -7.5 27.5zM260 0h-244q-25 0 -36 14.5t-3 34.5
q88 225 271.5 696.5t271.5 696.5q10 23 39.5 23t40.5 -23l543 -1393q8 -19 -3 -34t-34 -15h-248q-12 0 -24 7.5t-15 17.5v-2l-55 141h-410l-51 -141v2q-7 -25 -43 -25z" />
    <glyph glyph-name="Acircumflex" unicode="&#xc2;" 
d="M436 412h246l-72 213q-37 126 -49 198q-18 -97 -51 -198zM559 1856q15 0 21 -3l338 -180h-5q19 -8 25.5 -22t-4.5 -29v2l-88 -149q-22 -22 -58 -15l-229 129q-29 -17 -101 -60.5t-110 -64.5q-11 -5 -32.5 -0.5t-32.5 15.5l-90 133v-2q-10 12 -5 29t23 24h-4l332 190
q5 3 20 3zM260 0h-244q-25 0 -36 14.5t-3 34.5q88 225 271.5 696.5t271.5 696.5q10 23 39.5 23t40.5 -23l543 -1393q8 -19 -3 -34t-34 -15h-248q-12 0 -24 7.5t-15 17.5v-2l-55 141h-410l-51 -141v2q-7 -25 -43 -25z" />
    <glyph glyph-name="Atilde" unicode="&#xc3;" 
d="M436 412h246l-72 213q-37 126 -49 198q-18 -97 -51 -198zM938 1720q-62 -215 -232 -215q-80 0 -182 43l-26 8q-43 19 -54 19q-4 0 -12 -31q-20 -38 -57 -31l-158 43q-13 4 -22 16t-9 25q17 111 82.5 169.5t161.5 58.5t170 -47h4q43 -19 62 -19t32 35q6 9 24.5 15t37.5 3
l147 -47h-4q20 -5 30 -18t3 -29zM260 0h-244q-25 0 -36 14.5t-3 34.5q88 225 271.5 696.5t271.5 696.5q10 23 39.5 23t40.5 -23l543 -1393q8 -19 -3 -34t-34 -15h-248q-12 0 -24 7.5t-15 17.5v-2l-55 141h-410l-51 -141v2q-7 -25 -43 -25z" />
    <glyph glyph-name="Adieresis" unicode="&#xc4;" 
d="M614 1657q0 66 52 115t120 49t119 -49t51 -115t-51 -115t-119 -49t-120 49t-52 115zM436 412h246l-72 213q-37 126 -49 198q-18 -97 -51 -198zM188 1657q0 66 51 115t119 49t120 -49t52 -115t-52 -115t-120 -49t-119 49t-51 115zM260 0h-244q-25 0 -36 14.5t-3 34.5
q88 225 271.5 696.5t271.5 696.5q10 23 39.5 23t40.5 -23l543 -1393q8 -19 -3 -34t-34 -15h-248q-12 0 -24 7.5t-15 17.5v-2l-55 141h-410l-51 -141v2q-7 -25 -43 -25z" />
    <glyph glyph-name="Aring" unicode="&#xc5;" horiz-adv-x="1167" 
d="M485 1569q0 -46 29.5 -72t65 -26.5t65 26t29.5 71.5t-29.5 71t-65 26.5t-65 -25t-29.5 -71.5zM455 412h245l-71 213q-37 126 -49 198q-17 -90 -52 -198zM35 0q-25 0 -36 14.5t-3 34.5l485 1245q-92 26 -150.5 97t-58.5 159t26.5 143.5t69.5 89.5t98 52.5t145 18.5
t182 -74t92 -197q0 -124 -58.5 -195t-150.5 -96l485 -1243q8 -19 -3 -34t-34 -15h-247q-12 0 -24 7.5t-15 17.5v-2l-56 141h-409l-51 -141v2q-7 -25 -43 -25h-244z" />
    <glyph glyph-name="AE" unicode="&#xc6;" horiz-adv-x="1619" 
d="M729 446q0 51 6.5 215.5t9.5 270.5l-200 -486h184zM1464 1434q19 0 31 -11.5t12 -25.5v-215q0 -13 -12 -24t-31 -11h-444v-281h352q19 0 32 -11.5t13 -25.5v-211q0 -13 -13 -23.5t-32 -10.5h-352v-301h467q18 0 30.5 -11t12.5 -24v-213q0 -13 -12.5 -24t-30.5 -11h-715
q-19 0 -31 11t-12 24v143h-303q-17 -29 -38 -83t-32 -77v2q-4 -7 -18 -13.5t-23 -6.5h-262q-27 0 -39 17.5t2 37.5l-2 -2l627 1352q13 26 45 29h778z" />
    <glyph glyph-name="Ccedilla" unicode="&#xc7;" horiz-adv-x="1421" 
d="M403 -137q0 33 46 33h188q43 0 43 -33q0 -41 28 -63.5t69 -22.5t71.5 33.5t30.5 75.5t-22.5 71t-53.5 37q-196 6 -363 104t-265.5 263.5t-98.5 360.5t97.5 363t267 267.5t345.5 99.5q332 0 539 -211q13 -12 13 -27.5t-13 -27.5l-162 -162q-12 -6 -28.5 -6t-26.5 6
q-125 125 -297 125t-295 -125.5t-123 -301.5t123 -300.5t293 -124.5t295 125q12 8 31 8t32 -8l158 -166q13 -11 13 -26t-30 -46t-101.5 -81t-141.5 -76q92 -60 92 -195t-106.5 -223t-272.5 -88t-270.5 94.5t-104.5 247.5z" />
    <glyph glyph-name="Egrave" unicode="&#xc8;" horiz-adv-x="1204" 
d="M368.5 1740.5q-4.5 16.5 6.5 31.5v-3l110 177q9 16 62 -4l340 -195h-4q19 -8 24.5 -22.5t-6.5 -28.5v2l-98 -166q-16 -19 -66 0l-346 188q-18 4 -22.5 20.5zM127 35v1362q0 14 12 25.5t31 11.5h891q18 0 30.5 -11.5t12.5 -25.5v-219q0 -14 -12.5 -25.5t-30.5 -11.5h-621
v-275h525q18 0 29.5 -11.5t11.5 -25.5v-221q0 -13 -11.5 -24t-29.5 -11h-525v-274h637q19 0 32 -11.5t13 -25.5v-227q0 -13 -13 -24t-32 -11h-907q-19 0 -31 11t-12 24z" />
    <glyph glyph-name="Eacute" unicode="&#xc9;" horiz-adv-x="1204" 
d="M373.5 1704.5q4.5 15.5 23.5 21.5q67 37 188.5 103t172.5 94q52 19 61 4l115 -182q4 -10 -3.5 -23.5t-19.5 -19.5h2l-364 -191q-55 -19 -68 -2l-100 168q-12 12 -7.5 27.5zM127 35v1362q0 14 12 25.5t31 11.5h891q18 0 30.5 -11.5t12.5 -25.5v-219q0 -14 -12.5 -25.5
t-30.5 -11.5h-621v-275h525q18 0 29.5 -11.5t11.5 -25.5v-221q0 -13 -11.5 -24t-29.5 -11h-525v-274h637q19 0 32 -11.5t13 -25.5v-227q0 -13 -13 -24t-32 -11h-907q-19 0 -31 11t-12 24z" />
    <glyph glyph-name="Ecircumflex" unicode="&#xca;" horiz-adv-x="1204" 
d="M628 1928q15 0 21 -3l338 -180h-4q19 -8 25.5 -22t-4.5 -29v2l-89 -150q-21 -21 -57 -14l-229 129q-29 -17 -101 -60.5t-110 -64.5q-11 -5 -33 -1t-33 15l-90 133v-2q-10 12 -4.5 29.5t23.5 24.5h-5l332 190q5 3 20 3zM127 35v1362q0 14 12 25.5t31 11.5h891
q18 0 30.5 -11.5t12.5 -25.5v-219q0 -14 -12.5 -25.5t-30.5 -11.5h-621v-275h525q18 0 29.5 -11.5t11.5 -25.5v-221q0 -13 -11.5 -24t-29.5 -11h-525v-274h637q19 0 32 -11.5t13 -25.5v-227q0 -13 -13 -24t-32 -11h-907q-19 0 -31 11t-12 24z" />
    <glyph glyph-name="Edieresis" unicode="&#xcb;" horiz-adv-x="1204" 
d="M692 1686q0 66 52 114.5t120 48.5t119 -48.5t51 -114.5t-51 -115t-119 -49t-120 49t-52 115zM266 1686q0 66 51 114.5t119 48.5t120 -48.5t52 -114.5t-52 -115t-120 -49t-119 49t-51 115zM127 35v1362q0 14 12 25.5t31 11.5h891q18 0 30.5 -11.5t12.5 -25.5v-219
q0 -14 -12.5 -25.5t-30.5 -11.5h-621v-275h525q18 0 29.5 -11.5t11.5 -25.5v-221q0 -13 -11.5 -24t-29.5 -11h-525v-274h637q19 0 32 -11.5t13 -25.5v-227q0 -13 -13 -24t-32 -11h-907q-19 0 -31 11t-12 24z" />
    <glyph glyph-name="Igrave" unicode="&#xcc;" horiz-adv-x="716" 
d="M81.5 1740.5q-4.5 16.5 6.5 31.5v-3l111 177q9 15 61 -4l340 -195h-4q19 -8 24.5 -22.5t-6.5 -28.5v2l-98 -166q-15 -18 -65 0l-347 188q-18 4 -22.5 20.5zM29 35v209q0 13 12.5 24t30.5 11h118v876h-110q-18 0 -30.5 11t-12.5 24v207q0 14 12.5 25.5t30.5 11.5h532
q19 0 31 -11.5t12 -25.5v-207q0 -13 -12 -24t-31 -11h-108v-876h117q18 0 30.5 -11t12.5 -24v-209q0 -13 -12.5 -24t-30.5 -11h-549q-18 0 -30.5 11t-12.5 24z" />
    <glyph glyph-name="Iacute" unicode="&#xcd;" horiz-adv-x="716" 
d="M68.5 1721.5q4.5 15.5 23.5 21.5q66 37 186.5 101.5t174.5 94.5q52 19 61 5l115 -183q4 -10 -3.5 -23.5t-19.5 -19.5h2l-364 -190q-55 -19 -68 -2l-100 168q-12 12 -7.5 27.5zM29 35v209q0 13 12.5 24t30.5 11h118v876h-110q-18 0 -30.5 11t-12.5 24v207q0 14 12.5 25.5
t30.5 11.5h532q19 0 31 -11.5t12 -25.5v-207q0 -13 -12 -24t-31 -11h-108v-876h117q18 0 30.5 -11t12.5 -24v-209q0 -13 -12.5 -24t-30.5 -11h-549q-18 0 -30.5 11t-12.5 24z" />
    <glyph glyph-name="Icircumflex" unicode="&#xce;" horiz-adv-x="716" 
d="M29 35v209q0 13 12.5 24t30.5 11h118v876h-110q-18 0 -30.5 11t-12.5 24v207q0 14 12.5 25.5t30.5 11.5h532q19 0 31 -11.5t12 -25.5v-207q0 -13 -12 -24t-31 -11h-108v-876h117q18 0 30.5 -11t12.5 -24v-209q0 -13 -12.5 -24t-30.5 -11h-549q-18 0 -30.5 11t-12.5 24z
M346 1926q15 0 21 -3l338 -180h-5q19 -8 25.5 -22t-4.5 -29v2l-88 -150q-21 -21 -58 -14l-229 129q-29 -17 -101 -60.5t-110 -64.5q-11 -5 -32.5 -1t-32.5 15l-90 133v-2q-10 12 -5 29.5t23 24.5h-4l332 190q5 3 20 3z" />
    <glyph glyph-name="Idieresis" unicode="&#xcf;" horiz-adv-x="716" 
d="M403 1686q0 66 51.5 114.5t119.5 48.5t119.5 -48.5t51.5 -114.5t-51.5 -115t-119.5 -49t-119.5 49t-51.5 115zM29 35v209q0 13 12.5 24t30.5 11h118v876h-110q-18 0 -30.5 11t-12.5 24v207q0 14 12.5 25.5t30.5 11.5h532q19 0 31 -11.5t12 -25.5v-207q0 -13 -12 -24
t-31 -11h-108v-876h117q18 0 30.5 -11t12.5 -24v-209q0 -13 -12.5 -24t-30.5 -11h-549q-18 0 -30.5 11t-12.5 24zM-23 1686q0 66 50.5 114.5t118.5 48.5t120.5 -48.5t52.5 -114.5t-52.5 -115t-120.5 -49t-118.5 49t-50.5 115z" />
    <glyph glyph-name="Eth" unicode="&#xd0;" horiz-adv-x="1355" 
d="M440 289q181 0 330.5 67t149.5 361q0 430 -480 430v-301h211q19 0 32 -11t13 -24v-199q0 -13 -13 -23.5t-32 -10.5h-211v-289zM20 578q-40 0 -40 34v199q0 14 10 24.5t30 10.5h107v551q0 14 12 25.5t31 11.5h227q293 0 566.5 -120.5t273.5 -596.5q0 -359 -217.5 -538
t-622.5 -179h-227q-19 0 -31 11t-12 24v543h-107z" />
    <glyph glyph-name="Ntilde" unicode="&#xd1;" horiz-adv-x="1519" 
d="M1130 1741q-62 -215 -230 -215q-80 0 -183 43l-27 8q-41 18 -53 18q-4 0 -12 -30q-8 -15 -24.5 -24.5t-33.5 -6.5l-157 43q-13 4 -22 16t-9 25q17 111 82 169t161 58t171 -47h4q40 -18 63 -18q18 0 31 35q15 25 61 18l148 -47h-4q47 -12 32 -47zM129 35v1362
q0 14 12.5 25.5t30.5 11.5h231q23 0 35 -15q107 -154 304.5 -434t295.5 -420v832q0 14 12 25.5t31 11.5h226q19 0 31 -11.5t12 -25.5v-1362q0 -13 -12 -24t-31 -11h-230q-24 0 -35 14q-59 84 -267.5 383t-330.5 473v-835q0 -13 -12.5 -24t-30.5 -11h-229q-18 0 -30.5 11
t-12.5 24z" />
    <glyph glyph-name="Ograve" unicode="&#xd2;" horiz-adv-x="1306" 
d="M395 910q0 -102 69.5 -169t168.5 -67t167 67t68 169t-69 172.5t-167 70.5t-167.5 -70.5t-69.5 -172.5zM376.5 1728q-4.5 16 6.5 31v-2l111 176q9 15 61 -4l340 -194h-4q19 -8 24.5 -23t-6.5 -29v3l-98 -166q-16 -19 -66 0l-346 188q-18 4 -22.5 20zM135 35v225
q0 14 12 25.5t31 11.5h897q19 0 32 -11.5t13 -25.5v-225q0 -13 -13 -24t-32 -11h-897q-19 0 -31 11t-12 24zM82 892q0 128 44 227.5t117.5 172t175.5 115.5t232 43t256.5 -72.5t200.5 -197t74 -270.5t-74 -268.5t-201 -193.5t-275 -71t-275 71t-201 193.5t-74 250.5z" />
    <glyph glyph-name="Oacute" unicode="&#xd3;" horiz-adv-x="1306" 
d="M395 910q0 -102 69.5 -169t168.5 -67t167 67t68 169t-69 172.5t-167 70.5t-167.5 -70.5t-69.5 -172.5zM363.5 1717.5q4.5 15.5 23.5 21.5q66 37 186.5 101.5t174.5 94.5q52 19 61 4l115 -182q4 -10 -3.5 -23.5t-19.5 -19.5h2l-364 -190q-55 -19 -68 -2l-100 168
q-12 12 -7.5 27.5zM135 35v225q0 14 12 25.5t31 11.5h897q19 0 32 -11.5t13 -25.5v-225q0 -13 -13 -24t-32 -11h-897q-19 0 -31 11t-12 24zM82 892q0 128 44 227.5t117.5 172t175.5 115.5t232 43t256.5 -72.5t200.5 -197t74 -270.5t-74 -268.5t-201 -193.5t-275 -71t-275 71
t-201 193.5t-74 250.5z" />
    <glyph glyph-name="Ocircumflex" unicode="&#xd4;" horiz-adv-x="1306" 
d="M395 910q0 -102 69.5 -169t168.5 -67t167 67t68 169t-69 172.5t-167 70.5t-167.5 -70.5t-69.5 -172.5zM637.5 1916q15.5 0 21.5 -3l338 -180h-4q19 -8 25.5 -22.5t-4.5 -29.5v2l-88 -149q-21 -21 -58 -14l-229 129q-29 -17 -101 -60.5t-110 -64.5q-11 -5 -33 -1t-33 15
l-90 133v-2q-10 12 -4.5 29t23.5 24h-4l331 191q4 3 19.5 3zM135 35v225q0 14 12 25.5t31 11.5h897q19 0 32 -11.5t13 -25.5v-225q0 -13 -13 -24t-32 -11h-897q-19 0 -31 11t-12 24zM82 892q0 128 44 227.5t117.5 172t175.5 115.5t232 43t256.5 -72.5t200.5 -197t74 -270.5
t-74 -268.5t-201 -193.5t-275 -71t-275 71t-201 193.5t-74 250.5z" />
    <glyph glyph-name="Otilde" unicode="&#xd5;" horiz-adv-x="1306" 
d="M395 910q0 -102 69.5 -169t168.5 -67t167 67t68 169t-69 172.5t-167 70.5t-167.5 -70.5t-69.5 -172.5zM1020 1749q-62 -215 -232 -215q-80 0 -182 43l-26 8q-43 19 -54 19q-4 0 -12 -31q-20 -38 -57 -31l-158 43q-13 4 -22 16t-9 25q17 111 82.5 169t161.5 58t170 -47h4
q41 -18 64 -18q17 0 30 35q6 9 24.5 15t37.5 3l147 -47h-4q20 -5 30 -18t3 -29zM135 35v225q0 14 12 25.5t31 11.5h897q19 0 32 -11.5t13 -25.5v-225q0 -13 -13 -24t-32 -11h-897q-19 0 -31 11t-12 24zM82 892q0 128 44 227.5t117.5 172t175.5 115.5t232 43t256.5 -72.5
t200.5 -197t74 -270.5t-74 -268.5t-201 -193.5t-275 -71t-275 71t-201 193.5t-74 250.5z" />
    <glyph glyph-name="Odieresis" unicode="&#xd6;" horiz-adv-x="1306" 
d="M696 1675q0 66 52 115t120 49t119 -49t51 -115t-51 -115t-119 -49t-120 49t-52 115zM395 910q0 -102 69.5 -169t168.5 -67t167 67t68 169t-69 172.5t-167 70.5t-167.5 -70.5t-69.5 -172.5zM270 1675q0 66 51 115t119 49t120 -49t52 -115t-52 -115t-120 -49t-119 49
t-51 115zM135 35v225q0 14 12 25.5t31 11.5h897q19 0 32 -11.5t13 -25.5v-225q0 -13 -13 -24t-32 -11h-897q-19 0 -31 11t-12 24zM82 892q0 128 44 227.5t117.5 172t175.5 115.5t232 43t256.5 -72.5t200.5 -197t74 -270.5t-74 -268.5t-201 -193.5t-275 -71t-275 71
t-201 193.5t-74 250.5z" />
    <glyph glyph-name="multiply" unicode="&#xd7;" horiz-adv-x="825" 
d="M180.5 1072q16.5 0 28.5 -9l176 -176l174 174q27 20 53 0l138 -135q14 -10 14 -28t-14 -28l-175 -174l175 -174q15 -12 15 -27.5t-15 -27.5l-140 -137q-26 -17 -53 0l-176 176l-172 -176q-12 -8 -31.5 -6t-32.5 12l-129 131q-14 12 -14 27.5t14 27.5l177 174l-179 176v-2
q-13 11 -12.5 28t12.5 28l140 137q10 9 26.5 9z" />
    <glyph glyph-name="Oslash" unicode="&#xd8;" horiz-adv-x="1269" 
d="M395 910q0 -102 69.5 -169t168.5 -67t167 67t68 169t-69 172.5t-167 70.5t-167.5 -70.5t-69.5 -172.5zM135 14v226q0 14 12 25t31 11h897q19 0 32 -11t13 -25v-226q0 -13 -13 -23.5t-32 -10.5h-897q-19 0 -31 10.5t-12 23.5zM82 911q0 109 44 208.5t117.5 172t176 115.5
t210.5 43t206 -39l34 51q12 21 41 21h238q28 0 38 -19t-5 -41l-123 -176q123 -149 123 -336q0 -146 -74 -269t-200.5 -194t-274.5 -71q-86 0 -156 20l-28 -43q-10 -12 -27 -12h-242q-30 0 -40.5 16.5t7.5 38.5h-2l93 140q-156 156 -156 374z" />
    <glyph glyph-name="Ugrave" unicode="&#xd9;" horiz-adv-x="1515" 
d="M481 1732q-5 16 6 31v-2l111 176q9 15 61 -4l340 -194h-4q19 -8 25 -22.5t-6 -28.5v2l-99 -166q-15 -18 -65 0l-346 188q-18 4 -23 20zM442 584q0 -80 43 -164q79 -141 255 -141q222 0 259 136.5t37 170.5v569h-594v-571zM129 584v813q0 14 12.5 25.5t30.5 11.5h1133
q19 0 31 -11.5t12 -25.5v-813q0 -64 -41.5 -235.5t-212 -270t-352.5 -98.5t-322.5 83t-218.5 228q-30 61 -51 147t-21 146z" />
    <glyph glyph-name="Uacute" unicode="&#xda;" horiz-adv-x="1515" 
d="M468 1725.5q5 15.5 24 21.5q67 38 189 104t171 93q52 19 61 4l115 -183q4 -10 -3 -23.5t-19 -19.5h2l-365 -190q-55 -19 -68 -2l-100 168q-12 12 -7 27.5zM442 584q0 -80 43 -164q79 -141 255 -141q222 0 259 136.5t37 170.5v569h-594v-571zM129 584v813q0 14 12.5 25.5
t30.5 11.5h1133q19 0 31 -11.5t12 -25.5v-813q0 -64 -41.5 -235.5t-212 -270t-352.5 -98.5t-322.5 83t-218.5 228q-30 61 -51 147t-21 146z" />
    <glyph glyph-name="Ucircumflex" unicode="&#xdb;" horiz-adv-x="1515" 
d="M442 584q0 -80 43 -164q79 -141 255 -141q222 0 259 136.5t37 170.5v569h-594v-571zM743 1932q15 0 21 -3l338 -180h-4q44 -18 20 -51v2l-88 -150q-21 -21 -57 -14l-230 129q-29 -17 -101 -60.5t-110 -64.5q-11 -5 -32.5 -1t-32.5 15l-90 134v-2q-10 12 -5 29t23 24h-4
l332 190q5 3 20 3zM129 584v813q0 14 12.5 25.5t30.5 11.5h1133q19 0 31 -11.5t12 -25.5v-813q0 -64 -41.5 -235.5t-212 -270t-352.5 -98.5t-322.5 83t-218.5 228q-30 61 -51 147t-21 146z" />
    <glyph glyph-name="Udieresis" unicode="&#xdc;" horiz-adv-x="1515" 
d="M801 1696q0 66 51.5 115t119.5 49t119.5 -49t51.5 -115t-51.5 -115t-119.5 -49t-119.5 49t-51.5 115zM442 584q0 -80 43 -164q79 -141 255 -141q222 0 259 136.5t37 170.5v569h-594v-571zM375 1696q0 66 50.5 115t118.5 49t120.5 -49t52.5 -115t-52.5 -115t-120.5 -49
t-118.5 49t-50.5 115zM129 584v813q0 14 12.5 25.5t30.5 11.5h1133q19 0 31 -11.5t12 -25.5v-813q0 -64 -41.5 -235.5t-212 -270t-352.5 -98.5t-322.5 83t-218.5 228q-30 61 -51 147t-21 146z" />
    <glyph glyph-name="Yacute" unicode="&#xdd;" horiz-adv-x="1320" 
d="M371.5 1713.5q4.5 15.5 23.5 21.5q66 37 186.5 101.5t174.5 94.5q52 19 61 4l115 -182q4 -10 -3.5 -23.5t-19.5 -19.5h2l-364 -190q-55 -19 -68 -2l-100 168q-12 12 -7.5 27.5zM16 1434h277q25 0 37 -15q61 -88 171.5 -239t141.5 -195l311 434q15 15 35 15h279
q28 0 38.5 -19.5t-6.5 -38.5h3l-504 -706v-635q0 -13 -12 -24t-31 -11h-228q-18 0 -30.5 11t-12.5 24v635q-45 65 -138 193.5t-134 186.5t-117.5 166.5t-113.5 159.5h2q-17 19 -6.5 38.5t38.5 19.5z" />
    <glyph glyph-name="Thorn" unicode="&#xde;" horiz-adv-x="1193" 
d="M807 714q0 94 -63.5 119t-118.5 25h-138l168 -264q60 4 106 35.5t46 84.5zM127 35v518q0 14 12 25.5t31 11.5h145q-74 112 -188 299v510q0 14 12 25.5t31 11.5h227q18 0 30.5 -11.5t12.5 -25.5v-242h185q225 0 360 -119t135 -313q0 -240 -153.5 -336t-341.5 -96h-185
v-258q0 -13 -12.5 -24t-30.5 -11h-227q-19 0 -31 11t-12 24z" />
    <glyph glyph-name="germandbls" unicode="&#xdf;" horiz-adv-x="1212" 
d="M131 35v1347q0 14 11.5 24.5t29.5 10.5h444q154 0 322 -93.5t168 -343.5q0 -100 -48 -174t-114 -110q50 -24 86 -60.5t60 -89t26 -102.5v-20q0 -173 -95.5 -266.5t-208 -124t-168.5 -32.5l-28 -1q-19 0 -30 11t-11 24v221q0 14 10.5 24.5t24.5 10.5t27 1t46.5 8
t59.5 19.5t47 40t21 64.5t-20 64t-63.5 45.5t-97.5 20.5q-55 2 -55 36v223q0 14 11.5 24.5t29.5 10.5t53.5 2.5t82.5 34.5t47 104q0 73 -57.5 107t-127.5 34h-163l-2 -1095q0 -13 -11.5 -24t-29.5 -11h-236q-18 0 -29.5 11t-11.5 24z" />
    <glyph glyph-name="agrave" unicode="&#xe0;" 
d="M436 412h246l-72 213q-37 126 -49 198q-18 -97 -51 -198zM303 1706q-5 16 6 31v-2l111 176q9 15 61 -4l340 -195h-4q19 -8 25 -22.5t-6 -28.5v2l-99 -166q-15 -18 -65 0l-346 189q-18 4 -23 20zM260 0h-244q-25 0 -36 14.5t-3 34.5q88 225 271.5 696.5t271.5 696.5
q10 23 39.5 23t40.5 -23l543 -1393q8 -19 -3 -34t-34 -15h-248q-12 0 -24 7.5t-15 17.5v-2l-55 141h-410l-51 -141v2q-7 -25 -43 -25z" />
    <glyph glyph-name="aacute" unicode="&#xe1;" 
d="M436 412h246l-72 213q-37 126 -49 198q-18 -97 -51 -198zM283.5 1715.5q4.5 15.5 23.5 21.5q66 37 186.5 101.5t174.5 94.5q52 19 61 4l115 -182q4 -10 -3.5 -23.5t-19.5 -19.5h2l-364 -190q-55 -19 -68 -2l-100 168q-12 12 -7.5 27.5zM260 0h-244q-25 0 -36 14.5
t-3 34.5q88 225 271.5 696.5t271.5 696.5q10 23 39.5 23t40.5 -23l543 -1393q8 -19 -3 -34t-34 -15h-248q-12 0 -24 7.5t-15 17.5v-2l-55 141h-410l-51 -141v2q-7 -25 -43 -25z" />
    <glyph glyph-name="acircumflex" unicode="&#xe2;" 
d="M436 412h246l-72 213q-37 126 -49 198q-18 -97 -51 -198zM559 1887q15 0 21 -3l338 -180h-5q19 -8 25.5 -22t-4.5 -29v2l-88 -150q-21 -21 -58 -14l-229 129q-29 -17 -101 -60.5t-110 -64.5q-11 -5 -32.5 -1t-32.5 15l-90 133v-2q-10 12 -5 29.5t23 24.5h-4l332 190
q5 3 20 3zM260 0h-244q-25 0 -36 14.5t-3 34.5q88 225 271.5 696.5t271.5 696.5q10 23 39.5 23t40.5 -23l543 -1393q8 -19 -3 -34t-34 -15h-248q-12 0 -24 7.5t-15 17.5v-2l-55 141h-410l-51 -141v2q-7 -25 -43 -25z" />
    <glyph glyph-name="atilde" unicode="&#xe3;" 
d="M436 412h246l-72 213q-37 126 -49 198q-18 -97 -51 -198zM938 1729q-62 -216 -232 -216q-80 0 -182 43l-26 9q-40 18 -54 18q-4 0 -12 -31q-20 -37 -57 -30l-158 43q-13 4 -22 16t-9 25q17 111 82.5 169t161.5 58t170 -47h4q43 -19 62 -19t32 35q6 10 24.5 16t37.5 3
l147 -47h-4q20 -5 30 -18t3 -30zM260 0h-244q-25 0 -36 14.5t-3 34.5q88 225 271.5 696.5t271.5 696.5q10 23 39.5 23t40.5 -23l543 -1393q8 -19 -3 -34t-34 -15h-248q-12 0 -24 7.5t-15 17.5v-2l-55 141h-410l-51 -141v2q-7 -25 -43 -25z" />
    <glyph glyph-name="adieresis" unicode="&#xe4;" 
d="M614 1679q0 66 52 115t120 49t119 -49t51 -115t-51 -114.5t-119 -48.5t-120 48.5t-52 114.5zM436 412h246l-72 213q-37 126 -49 198q-18 -97 -51 -198zM188 1679q0 66 51 115t119 49t120 -49t52 -115t-52 -114.5t-120 -48.5t-119 48.5t-51 114.5zM260 0h-244
q-25 0 -36 14.5t-3 34.5q88 225 271.5 696.5t271.5 696.5q10 23 39.5 23t40.5 -23l543 -1393q8 -19 -3 -34t-34 -15h-248q-12 0 -24 7.5t-15 17.5v-2l-55 141h-410l-51 -141v2q-7 -25 -43 -25z" />
    <glyph glyph-name="aring" unicode="&#xe5;" horiz-adv-x="1167" 
d="M485 1569q0 -46 29.5 -72t65 -26.5t65 26t29.5 71.5t-29.5 71t-65 26.5t-65 -25t-29.5 -71.5zM455 412h245l-71 213q-37 126 -49 198q-17 -90 -52 -198zM35 0q-25 0 -36 14.5t-3 34.5l485 1245q-92 26 -150.5 97t-58.5 159t26.5 143.5t69.5 89.5t98 52.5t145 18.5
t182 -74t92 -197q0 -124 -58.5 -195t-150.5 -96l485 -1243q8 -19 -3 -34t-34 -15h-247q-12 0 -24 7.5t-15 17.5v-2l-56 141h-409l-51 -141v2q-7 -25 -43 -25h-244z" />
    <glyph glyph-name="ae" unicode="&#xe6;" horiz-adv-x="1619" 
d="M729 446q0 51 6.5 215.5t9.5 270.5l-200 -486h184zM1464 1434q19 0 31 -11.5t12 -25.5v-215q0 -13 -12 -24t-31 -11h-444v-281h352q19 0 32 -11.5t13 -25.5v-211q0 -13 -13 -23.5t-32 -10.5h-352v-301h467q18 0 30.5 -11t12.5 -24v-213q0 -13 -12.5 -24t-30.5 -11h-715
q-19 0 -31 11t-12 24v143h-303q-17 -29 -38 -83t-32 -77v2q-4 -7 -18 -13.5t-23 -6.5h-262q-27 0 -39 17.5t2 37.5l-2 -2l627 1352q13 26 45 29h778z" />
    <glyph glyph-name="ccedilla" unicode="&#xe7;" horiz-adv-x="1421" 
d="M403 -137q0 33 46 33h188q43 0 43 -33q0 -41 28 -63.5t69 -22.5t71.5 33.5t30.5 75.5t-22.5 71t-53.5 37q-196 6 -363 104t-265.5 263.5t-98.5 360.5t97.5 363t267 267.5t345.5 99.5q332 0 539 -211q13 -12 13 -27.5t-13 -27.5l-162 -162q-12 -6 -28.5 -6t-26.5 6
q-125 125 -297 125t-295 -125.5t-123 -301.5t123 -300.5t293 -124.5t295 125q12 8 31 8t32 -8l158 -166q13 -11 13 -26t-30 -46t-101.5 -81t-141.5 -76q92 -60 92 -195t-106.5 -223t-272.5 -88t-270.5 94.5t-104.5 247.5z" />
    <glyph glyph-name="egrave" unicode="&#xe8;" horiz-adv-x="1204" 
d="M366.5 1724q-4.5 16 6.5 31v-2l110 176q9 16 62 -4l340 -194h-4q19 -8 24.5 -23t-6.5 -29v2l-98 -165q-16 -19 -66 0l-346 188q-18 4 -22.5 20zM127 35v1362q0 14 12 25.5t31 11.5h891q18 0 30.5 -11.5t12.5 -25.5v-219q0 -14 -12.5 -25.5t-30.5 -11.5h-621v-275h525
q18 0 29.5 -11.5t11.5 -25.5v-221q0 -13 -11.5 -24t-29.5 -11h-525v-274h637q19 0 32 -11.5t13 -25.5v-227q0 -13 -13 -24t-32 -11h-907q-19 0 -31 11t-12 24z" />
    <glyph glyph-name="eacute" unicode="&#xe9;" horiz-adv-x="1204" 
d="M373.5 1725.5q4.5 15.5 23.5 21.5q67 37 188.5 103t172.5 94q52 19 61 4l115 -183q4 -10 -3.5 -23.5t-19.5 -19.5h2l-364 -190q-55 -19 -68 -2l-100 168q-12 12 -7.5 27.5zM127 35v1362q0 14 12 25.5t31 11.5h891q18 0 30.5 -11.5t12.5 -25.5v-219q0 -14 -12.5 -25.5
t-30.5 -11.5h-621v-275h525q18 0 29.5 -11.5t11.5 -25.5v-221q0 -13 -11.5 -24t-29.5 -11h-525v-274h637q19 0 32 -11.5t13 -25.5v-227q0 -13 -13 -24t-32 -11h-907q-19 0 -31 11t-12 24z" />
    <glyph glyph-name="ecircumflex" unicode="&#xea;" horiz-adv-x="1204" 
d="M647 1934q15 0 21 -3l338 -180h-5q19 -8 25.5 -22t-4.5 -29v2l-88 -150q-21 -21 -57 -14l-230 129q-29 -17 -101 -60.5t-110 -64.5q-11 -5 -32.5 -1t-32.5 15l-90 134v-2q-10 12 -5 29t23 24h-4l332 190q5 3 20 3zM127 35v1362q0 14 12 25.5t31 11.5h891q18 0 30.5 -11.5
t12.5 -25.5v-219q0 -14 -12.5 -25.5t-30.5 -11.5h-621v-275h525q18 0 29.5 -11.5t11.5 -25.5v-221q0 -13 -11.5 -24t-29.5 -11h-525v-274h637q19 0 32 -11.5t13 -25.5v-227q0 -13 -13 -24t-32 -11h-907q-19 0 -31 11t-12 24z" />
    <glyph glyph-name="edieresis" unicode="&#xeb;" horiz-adv-x="1204" 
d="M680 1694q0 66 52 115t120 49t119 -49t51 -115t-51 -115t-119 -49t-120 49t-52 115zM254 1694q0 66 51 115t119 49t120 -49t52 -115t-52 -115t-120 -49t-119 49t-51 115zM127 35v1362q0 14 12 25.5t31 11.5h891q18 0 30.5 -11.5t12.5 -25.5v-219q0 -14 -12.5 -25.5
t-30.5 -11.5h-621v-275h525q18 0 29.5 -11.5t11.5 -25.5v-221q0 -13 -11.5 -24t-29.5 -11h-525v-274h637q19 0 32 -11.5t13 -25.5v-227q0 -13 -13 -24t-32 -11h-907q-19 0 -31 11t-12 24z" />
    <glyph glyph-name="igrave" unicode="&#xec;" horiz-adv-x="573" 
d="M123 35v1347q0 14 12.5 24.5t30.5 10.5h223q19 0 31 -10.5t12 -24.5v-1347q0 -13 -12 -24t-31 -11h-223q-18 0 -30.5 11t-12.5 24zM10 1740.5q-5 16.5 6 31.5v-3l111 177q9 15 61 -4l340 -195h-4q19 -8 25 -22.5t-6 -28.5v2l-99 -166q-15 -18 -65 0l-346 188
q-18 4 -23 20.5z" />
    <glyph glyph-name="iacute" unicode="&#xed;" horiz-adv-x="573" 
d="M123 35v1347q0 14 12.5 24.5t30.5 10.5h223q19 0 31 -10.5t12 -24.5v-1347q0 -13 -12 -24t-31 -11h-223q-18 0 -30.5 11t-12.5 24zM-1 1719.5q5 15.5 24 21.5q66 37 186.5 102t173.5 94q52 19 61 5l115 -183q4 -10 -3 -23.5t-19 -19.5h2l-365 -190q-55 -19 -68 -2
l-100 168q-12 12 -7 27.5z" />
    <glyph glyph-name="icircumflex" unicode="&#xee;" horiz-adv-x="573" 
d="M123 35v1347q0 14 12.5 24.5t30.5 10.5h223q19 0 31 -10.5t12 -24.5v-1347q0 -13 -12 -24t-31 -11h-223q-18 0 -30.5 11t-12.5 24zM274 1904q15 0 21 -3l338 -181h-4q44 -18 20 -51v2l-88 -149q-22 -22 -57 -15l-230 129q-29 -17 -101 -60.5t-110 -64.5
q-11 -5 -32.5 -0.5t-32.5 15.5l-90 133v-2q-10 12 -5 29t23 24h-4l332 191q5 3 20 3z" />
    <glyph glyph-name="idieresis" unicode="&#xef;" horiz-adv-x="573" 
d="M330 1677q0 66 52 115t120 49t119 -49t51 -115t-51 -115t-119 -49t-120 49t-52 115zM123 35v1347q0 14 12.5 24.5t30.5 10.5h223q19 0 31 -10.5t12 -24.5v-1347q0 -13 -12 -24t-31 -11h-223q-18 0 -30.5 11t-12.5 24zM-96 1677q0 66 51 115t119 49t120 -49t52 -115
t-52 -115t-120 -49t-119 49t-51 115z" />
    <glyph glyph-name="eth" unicode="&#xf0;" horiz-adv-x="1355" 
d="M436 283h29q191 0 316.5 100.5t125.5 318t-120 320t-312 102.5h-39v-295h209q18 0 30.5 -11t12.5 -25v-181q0 -14 -12.5 -24t-30.5 -10h-209v-295zM-16 612v181q0 14 12.5 25t30.5 11h102v541q0 15 11.5 26t31.5 11h223q284 0 502 -95t270 -287.5t52 -320.5t-28 -230.5
t-74 -174t-186 -185.5t-536 -114h-223q-20 0 -31.5 11t-11.5 24v543h-102q-18 0 -30.5 10t-12.5 24z" />
    <glyph glyph-name="ntilde" unicode="&#xf1;" horiz-adv-x="1519" 
d="M1130 1731q-62 -215 -230 -215q-80 0 -183 43l-27 8q-41 18 -53 18q-4 0 -12 -31q-20 -37 -58 -30l-157 43q-13 4 -22 16t-9 25q17 111 82 169t161 58t171 -47h4q43 -19 62 -19t32 35q6 10 24 16t37 3l148 -47h-4q47 -12 32 -47zM129 35v1362q0 14 12.5 25.5t30.5 11.5
h231q23 0 35 -15q107 -154 304.5 -434t295.5 -420v832q0 14 12 25.5t31 11.5h226q19 0 31 -11.5t12 -25.5v-1362q0 -13 -12 -24t-31 -11h-230q-24 0 -35 14q-59 84 -267.5 383t-330.5 473v-835q0 -13 -12.5 -24t-30.5 -11h-229q-18 0 -30.5 11t-12.5 24z" />
    <glyph glyph-name="ograve" unicode="&#xf2;" horiz-adv-x="1632" 
d="M536.5 1740.5q-4.5 16.5 6.5 31.5v-3l110 177q9 16 62 -4l340 -195h-4q19 -8 24.5 -22.5t-6.5 -28.5v2l-98 -166q-16 -19 -66 0l-346 188q-18 4 -22.5 20.5zM397 708q0 -84 25 -161.5t72.5 -140t123.5 -99.5t160 -37t175.5 34.5t159 148t67.5 254.5q0 217 -120 329.5
t-272 112.5q-94 0 -170 -37.5t-123.5 -100.5t-72.5 -141t-25 -162zM82 711q0 110 42.5 270.5t215.5 308.5t448 148q395 0 550 -249t155 -478.5t-119 -420.5t-284.5 -249.5t-302.5 -58.5t-253.5 41t-198.5 111.5t-140 164t-85.5 198t-27.5 214.5z" />
    <glyph glyph-name="oacute" unicode="&#xf3;" horiz-adv-x="1632" 
d="M541.5 1721.5q4.5 15.5 23.5 21.5q66 37 186.5 101.5t174.5 94.5q52 19 61 5l115 -183q4 -10 -3.5 -23.5t-19.5 -19.5h2l-364 -190q-55 -19 -68 -2l-100 168q-12 12 -7.5 27.5zM397 708q0 -84 25 -161.5t72.5 -140t123.5 -99.5t160 -37t175.5 34.5t159 148t67.5 254.5
q0 217 -120 329.5t-272 112.5q-94 0 -170 -37.5t-123.5 -100.5t-72.5 -141t-25 -162zM82 711q0 110 42.5 270.5t215.5 308.5t448 148q395 0 550 -249t155 -478.5t-119 -420.5t-284.5 -249.5t-302.5 -58.5t-253.5 41t-198.5 111.5t-140 164t-85.5 198t-27.5 214.5z" />
    <glyph glyph-name="ocircumflex" unicode="&#xf4;" horiz-adv-x="1632" 
d="M802 1912q15 0 21 -3l338 -180h-4q19 -8 25.5 -22.5t-4.5 -29.5v2l-88 -149q-21 -21 -58 -14l-229 129q-29 -17 -101 -60.5t-110 -64.5q-11 -5 -33 -1t-33 15l-90 133v-2q-10 12 -4.5 29t23.5 24h-4l331 191q5 3 20 3zM397 708q0 -84 25 -161.5t72.5 -140t123.5 -99.5
t160 -37t175.5 34.5t159 148t67.5 254.5q0 217 -120 329.5t-272 112.5q-94 0 -170 -37.5t-123.5 -100.5t-72.5 -141t-25 -162zM82 711q0 110 42.5 270.5t215.5 308.5t448 148q395 0 550 -249t155 -478.5t-119 -420.5t-284.5 -249.5t-302.5 -58.5t-253.5 41t-198.5 111.5
t-140 164t-85.5 198t-27.5 214.5z" />
    <glyph glyph-name="otilde" unicode="&#xf5;" horiz-adv-x="1632" 
d="M1176 1743q-62 -215 -232 -215q-80 0 -182 43l-27 8q-41 18 -53 18q-4 0 -12 -30q-8 -15 -24.5 -24.5t-33.5 -6.5l-157 43q-13 4 -22 16t-9 25q17 111 82.5 169t161.5 58t170 -47h4q40 -18 63 -18q18 0 31 35q15 25 61 18l148 -47h-4q20 -5 30 -18t3 -29zM397 708
q0 -84 25 -161.5t72.5 -140t123.5 -99.5t160 -37t175.5 34.5t159 148t67.5 254.5q0 217 -120 329.5t-272 112.5q-94 0 -170 -37.5t-123.5 -100.5t-72.5 -141t-25 -162zM82 711q0 110 42.5 270.5t215.5 308.5t448 148q395 0 550 -249t155 -478.5t-119 -420.5t-284.5 -249.5
t-302.5 -58.5t-253.5 41t-198.5 111.5t-140 164t-85.5 198t-27.5 214.5z" />
    <glyph glyph-name="odieresis" unicode="&#xf6;" horiz-adv-x="1632" 
d="M858 1663q0 66 52 115t120 49t119 -49t51 -115t-51 -115t-119 -49t-120 49t-52 115zM432 1663q0 66 51 115t119 49t120 -49t52 -115t-52 -115t-120 -49t-119 49t-51 115zM397 708q0 -84 25 -161.5t72.5 -140t123.5 -99.5t160 -37t175.5 34.5t159 148t67.5 254.5
q0 217 -120 329.5t-272 112.5q-94 0 -170 -37.5t-123.5 -100.5t-72.5 -141t-25 -162zM82 711q0 110 42.5 270.5t215.5 308.5t448 148q395 0 550 -249t155 -478.5t-119 -420.5t-284.5 -249.5t-302.5 -58.5t-253.5 41t-198.5 111.5t-140 164t-85.5 198t-27.5 214.5z" />
    <glyph glyph-name="divide" unicode="&#xf7;" horiz-adv-x="1003" 
d="M322 1100q0 70 52 120t126 50t126 -50t52 -120t-51.5 -120t-126.5 -50t-126.5 50t-51.5 120zM322 367q0 70 52 120t126 50t126 -50t52 -120t-52 -120t-126 -50t-126 50t-52 120zM61 594v272h875v-272h-875z" />
    <glyph glyph-name="oslash" unicode="&#xf8;" horiz-adv-x="1597" 
d="M800 270q62 0 153.5 34.5t159 148t67.5 268.5t-95 283l-401 -721q54 -13 116 -13zM762 1149q-68 0 -144 -37.5t-148.5 -133.5t-72.5 -266t84 -288l398 715q-49 10 -117 10zM82 685q0 136 42.5 296.5t215.5 308.5t448 148q108 0 222 -31l61 104q9 19 39 19h227
q24 0 35 -16t2 -37l-114 -211q114 -102 173.5 -248.5t59.5 -281.5t-43 -296.5t-216.5 -309.5t-445.5 -148q-134 0 -237 34l-68 -120q-8 -21 -39 -21h-221q-26 0 -38 17.5t1 37.5l-2 -2l129 224q-114 103 -172.5 250t-58.5 283z" />
    <glyph glyph-name="ugrave" unicode="&#xf9;" horiz-adv-x="1398" 
d="M393 1679q-5 16 6 31v-2l111 176q9 15 61 -4l340 -194h-4q19 -8 25 -23t-6 -29v2l-99 -166q-15 -18 -65 0l-346 189q-18 4 -23 20zM131 463v907q0 14 12.5 25.5t30.5 11.5h223q18 0 30.5 -11.5t12.5 -25.5v-903q13 -88 80 -140.5t159 -52.5t161 49.5t69 139.5v907
q0 14 12.5 25.5t30.5 11.5h226q17 0 29 -11.5t12 -25.5v-907q0 -149 -72 -259.5t-194 -167t-275 -56.5t-276.5 58t-197 169t-73.5 256z" />
    <glyph glyph-name="uacute" unicode="&#xfa;" horiz-adv-x="1398" 
d="M427 1657.5q5 15.5 24 21.5q67 38 189 104t171 93q52 19 61 4l115 -182q4 -10 -3 -23.5t-19 -19.5h2l-365 -191q-54 -19 -67 -2l-101 168q-12 12 -7 27.5zM131 463v907q0 14 12.5 25.5t30.5 11.5h223q18 0 30.5 -11.5t12.5 -25.5v-903q13 -88 80 -140.5t159 -52.5
t161 49.5t69 139.5v907q0 14 12.5 25.5t30.5 11.5h226q17 0 29 -11.5t12 -25.5v-907q0 -149 -72 -259.5t-194 -167t-275 -56.5t-276.5 58t-197 169t-73.5 256z" />
    <glyph glyph-name="ucircumflex" unicode="&#xfb;" horiz-adv-x="1398" 
d="M685.5 1867q15.5 0 21.5 -3l337 -181h-4q19 -8 25.5 -22t-4.5 -29v2l-88 -149q-22 -22 -58 -15l-229 129q-28 -16 -100 -59t-111 -65q-11 -5 -32.5 -1t-32.5 15l-91 133v-2q-10 12 -4.5 29t23.5 24h-4l332 191q4 3 19.5 3zM131 463v907q0 14 12.5 25.5t30.5 11.5h223
q18 0 30.5 -11.5t12.5 -25.5v-903q13 -88 80 -140.5t159 -52.5t161 49.5t69 139.5v907q0 14 12.5 25.5t30.5 11.5h226q17 0 29 -11.5t12 -25.5v-907q0 -149 -72 -259.5t-194 -167t-275 -56.5t-276.5 58t-197 169t-73.5 256z" />
    <glyph glyph-name="udieresis" unicode="&#xfc;" horiz-adv-x="1398" 
d="M741 1642q0 66 51.5 115t119.5 49t119.5 -49t51.5 -115t-51.5 -114.5t-119.5 -48.5t-119.5 48.5t-51.5 114.5zM315 1642q0 66 50.5 115t118.5 49t120.5 -49t52.5 -115t-52.5 -114.5t-120.5 -48.5t-118.5 48.5t-50.5 114.5zM131 463v907q0 14 12.5 25.5t30.5 11.5h223
q18 0 30.5 -11.5t12.5 -25.5v-903q13 -88 80 -140.5t159 -52.5t161 49.5t69 139.5v907q0 14 12.5 25.5t30.5 11.5h226q17 0 29 -11.5t12 -25.5v-907q0 -149 -72 -259.5t-194 -167t-275 -56.5t-276.5 58t-197 169t-73.5 256z" />
    <glyph glyph-name="yacute" unicode="&#xfd;" horiz-adv-x="1320" 
d="M379.5 1674.5q4.5 15.5 23.5 21.5q66 37 186.5 101.5t174.5 94.5q52 19 61 4l115 -182q4 -10 -3 -23.5t-19 -19.5h2l-365 -190q-55 -19 -68 -2l-100 168q-12 12 -7.5 27.5zM23 1417h272q23 0 35 -12q57 -84 162 -232t145 -206l305 438q20 12 33 12h274q28 0 39 -18.5
t-6 -38.5h2l-493 -703v-622q0 -13 -12.5 -24t-30.5 -11h-224q-19 0 -31 11t-12 24v622l-495 703h2q-15 20 -4.5 38.5t39.5 18.5z" />
    <glyph glyph-name="thorn" unicode="&#xfe;" horiz-adv-x="1187" 
d="M438 588h180q132 0 157.5 53t25.5 85t-31 76t-152 50h-180v-264zM131 31v1339q0 14 11.5 25.5t29.5 11.5h223q20 0 31.5 -11t11.5 -26v-223h180q155 0 322.5 -95t167.5 -300t-94 -300t-204 -125.5t-165 -32.5l-27 -1h-180v-262q0 -13 -11.5 -24t-31.5 -11h-223
q-18 0 -29.5 11t-11.5 24z" />
    <glyph glyph-name="ydieresis" unicode="&#xff;" horiz-adv-x="1320" 
d="M702 1640q0 66 52 115t120 49t119 -49t51 -115t-51 -114.5t-119 -48.5t-120 48.5t-52 114.5zM276 1640q0 66 51 115t119 49t120 -49t52 -115t-52 -114.5t-120 -48.5t-119 48.5t-51 114.5zM23 1417h272q23 0 35 -12q57 -84 162 -232t145 -206l305 438q20 12 33 12h274
q28 0 39 -18.5t-6 -38.5h2l-493 -703v-622q0 -13 -12.5 -24t-30.5 -11h-224q-19 0 -31 11t-12 24v622l-495 703h2q-15 20 -4.5 38.5t39.5 18.5z" />
    <glyph glyph-name="OE" unicode="&#x152;" horiz-adv-x="1937" 
d="M432 717q0 -88 23.5 -169t67 -147t114.5 -105.5t149 -39.5t123 14v891q-63 17 -131 17t-140 -39.5t-115.5 -105.5t-67 -147t-23.5 -169zM100 719q0 111 42 273t213 311t442 149q87 0 172 -18h757q18 0 30.5 -11.5t12.5 -25.5v-215q0 -14 -12.5 -25.5t-30.5 -11.5h-514
v-279h426q18 0 30.5 -11.5t12.5 -25.5v-217q0 -13 -12.5 -23.5t-30.5 -10.5h-426v-283h539q19 0 32 -11.5t13 -25.5v-223q0 -13 -13 -24t-32 -11l-790 2q-75 -16 -187 -16t-227 41t-196 111.5t-138.5 164t-85 199.5t-27.5 217z" />
    <glyph glyph-name="oe" unicode="&#x153;" horiz-adv-x="1937" 
d="M432 687q0 -101 39 -200.5t122.5 -166t197.5 -66.5q57 0 110 12v875q-56 12 -126 12t-140 -38.5t-113.5 -103t-66.5 -144t-23 -180.5zM109 719q0 123 43.5 249.5t126 229t215.5 164t297 61.5q76 0 170 -16h739q19 0 31 -11.5t12 -25.5v-213q0 -13 -12 -24t-31 -11h-502
v-274h418q17 0 29 -10.5t12 -24.5v-211q0 -13 -12 -24t-29 -11h-418v-278h531q18 0 30.5 -10.5t12.5 -24.5v-219q0 -13 -12.5 -24t-30.5 -11l-777 2q-75 -16 -184 -16t-222 40.5t-192 109.5t-135.5 161t-83 195.5t-26.5 226.5z" />
    <glyph glyph-name="Ydieresis" unicode="&#x178;" horiz-adv-x="1320" 
d="M702 1692q0 66 52 114.5t120 48.5t119 -48.5t51 -114.5t-51 -115t-119 -49t-120 49t-52 115zM276 1692q0 66 51 114.5t119 48.5t120 -48.5t52 -114.5t-52 -115t-120 -49t-119 49t-51 115zM16 1434h277q25 0 37 -15q61 -88 171.5 -239t141.5 -195l311 434q15 15 35 15h279
q28 0 38.5 -19.5t-6.5 -38.5h3l-504 -706v-635q0 -13 -12 -24t-31 -11h-228q-18 0 -30.5 11t-12.5 24v635q-45 65 -138 193.5t-134 186.5t-117.5 166.5t-113.5 159.5h2q-17 19 -6.5 38.5t38.5 19.5z" />
    <glyph glyph-name="circumflex" unicode="&#x2c6;" horiz-adv-x="802" 
d="M395 1488q15 0 21 -3l338 -180h-4q19 -8 25 -22.5t-5 -29.5v2l-88 -149q-21 -21 -57 -14l-230 129q-29 -17 -101 -60.5t-110 -64.5q-11 -5 -32.5 -1t-32.5 15l-90 133v-2q-10 12 -5 29t23 24h-4l332 191q5 3 20 3z" />
    <glyph glyph-name="tilde" unicode="&#x2dc;" horiz-adv-x="802" 
d="M774 1348q-62 -215 -231 -215q-80 0 -183 43l-26 8q-40 18 -53 18q-5 0 -13 -31q-20 -37 -57 -30l-158 43q-13 4 -21 16q-9 12 -9 25q17 111 82 169t161 58t170 -47h4q42 -19 62 -19t33 35q6 10 24 16t37 3l147 -47h-4q20 -5 30 -18t3 -29z" />
    <glyph glyph-name="uni2000" unicode="&#x2000;" horiz-adv-x="977" 
 />
    <glyph glyph-name="uni2001" unicode="&#x2001;" horiz-adv-x="1954" 
 />
    <glyph glyph-name="uni2002" unicode="&#x2002;" horiz-adv-x="977" 
 />
    <glyph glyph-name="uni2003" unicode="&#x2003;" horiz-adv-x="1954" 
 />
    <glyph glyph-name="uni2004" unicode="&#x2004;" horiz-adv-x="651" 
 />
    <glyph glyph-name="uni2005" unicode="&#x2005;" horiz-adv-x="488" 
 />
    <glyph glyph-name="uni2006" unicode="&#x2006;" horiz-adv-x="325" 
 />
    <glyph glyph-name="uni2007" unicode="&#x2007;" horiz-adv-x="325" 
 />
    <glyph glyph-name="uni2008" unicode="&#x2008;" horiz-adv-x="244" 
 />
    <glyph glyph-name="uni2009" unicode="&#x2009;" horiz-adv-x="390" 
 />
    <glyph glyph-name="uni200A" unicode="&#x200a;" horiz-adv-x="108" 
 />
    <glyph glyph-name="uni2010" unicode="&#x2010;" horiz-adv-x="907" 
d="M47 616v207q0 13 13 25t32 12h684q20 0 32 -11t11 -26v-207q1 -14 -11 -24t-32 -10h-684q-19 0 -32 10t-13 24z" />
    <glyph glyph-name="uni2011" unicode="&#x2011;" horiz-adv-x="907" 
d="M47 616v207q0 13 13 25t32 12h684q20 0 32 -11t11 -26v-207q1 -14 -11 -24t-32 -10h-684q-19 0 -32 10t-13 24z" />
    <glyph glyph-name="figuredash" unicode="&#x2012;" horiz-adv-x="907" 
d="M47 616v207q0 13 13 25t32 12h684q20 0 32 -11t11 -26v-207q1 -14 -11 -24t-32 -10h-684q-19 0 -32 10t-13 24z" />
    <glyph glyph-name="endash" unicode="&#x2013;" horiz-adv-x="1042" 
d="M45 590v217q0 13 12.5 24t30.5 11h823q18 0 30.5 -11t12.5 -24v-217q0 -12 -12.5 -23.5t-30.5 -11.5h-823q-18 0 -30.5 11.5t-12.5 23.5z" />
    <glyph glyph-name="emdash" unicode="&#x2014;" horiz-adv-x="1185" 
d="M45 590v217q0 13 13 24t32 11h940q18 0 30.5 -11t12.5 -24v-217q0 -12 -12.5 -23.5t-30.5 -11.5h-940q-19 0 -32 11.5t-13 23.5z" />
    <glyph glyph-name="quotesinglbase" unicode="&#x201a;" horiz-adv-x="411" 
d="M18 144q0 60 48 106.5t128 46.5t124 -48.5t44 -127.5t-47 -169.5t-110 -131.5q-23 -12 -44.5 -1t-21.5 34v135q-54 12 -87.5 54t-33.5 102z" />
    <glyph glyph-name="quotedblbase" unicode="&#x201e;" horiz-adv-x="806" 
d="M420 144q0 60 48 106.5t128 46.5t124 -48.5t44 -127.5t-47.5 -169t-110.5 -132q-23 -12 -44 -1t-21 34v135q-54 12 -87.5 54t-33.5 102zM18 144q0 60 48 106.5t128 46.5t124 -48.5t44 -127.5t-47 -169.5t-110 -131.5q-23 -12 -44.5 -1t-21.5 34v135q-54 12 -87.5 54
t-33.5 102z" />
    <glyph glyph-name="bullet" unicode="&#x2022;" horiz-adv-x="638" 
d="M41 718q0 100 76.5 172.5t180.5 72.5t177.5 -71.5t73.5 -173.5t-74 -174.5t-178 -72.5t-180 73.5t-76 173.5z" />
    <glyph glyph-name="ellipsis" unicode="&#x2026;" horiz-adv-x="1173" 
d="M809 144q0 66 48.5 113.5t116.5 47.5t116.5 -47.5t48.5 -113.5t-48 -111t-117 -45t-117 45t-48 111zM414 144q0 66 48 113.5t116 47.5t116.5 -47.5t48.5 -113.5t-48 -111t-117 -45t-116.5 45t-47.5 111zM20 144q0 66 48.5 113.5t117.5 47.5t117.5 -47.5t48.5 -113.5
t-48 -111t-118 -45t-118 45t-48 111z" />
    <glyph glyph-name="uni202F" unicode="&#x202f;" horiz-adv-x="390" 
 />
    <glyph glyph-name="guilsinglleft" unicode="&#x2039;" horiz-adv-x="643" 
d="M2 659q0 13 8 21l357 453q10 10 28 13t31 -7l145 -115q34 -26 7 -53l4 2l-228 -316l234 -280q19 -26 -8 -51h2l-150 -121q-26 -19 -57 4l-365 428q-8 9 -8 22z" />
    <glyph glyph-name="guilsinglright" unicode="&#x203a;" horiz-adv-x="643" 
d="M608 659q0 -13 -8 -22q-141 -162 -364 -428q-32 -25 -56 -4l-149 121q-27 25 -8 51l235 282l-229 314l4 -2q-24 28 6 53l147 115q10 6 29.5 4.5t28.5 -10.5l356 -453q8 -8 8 -21z" />
    <glyph glyph-name="uni205F" unicode="&#x205f;" horiz-adv-x="488" 
 />
    <glyph glyph-name="Euro" unicode="&#x20ac;" horiz-adv-x="1214" 
d="M-16 483v154q0 14 12.5 24.5t32.5 10.5h77v65h-77q-19 0 -32 11.5t-13 21.5v160q0 12 13 23.5t32 11.5h102q66 200 234 334.5t440 134.5q168 0 323 -84h-2q16 -8 21.5 -23t-4.5 -29l2 2l-103 -196q-30 -32 -82 -8q-83 38 -155 39q-216 0 -330 -170h268q18 0 30.5 -11.5
t12.5 -23.5v-160q0 -10 -13 -21.5t-30 -11.5h-350q0 -53 2 -65h348q18 0 30.5 -10.5t12.5 -24.5v-154q0 -14 -12.5 -24t-30.5 -10h-254q52 -68 134.5 -109t182.5 -41t193 41q49 15 60 -8l84 -238q4 -20 -29 -31h2q-135 -63 -311 -63q-261 0 -428.5 122.5t-239.5 326.5h-108
q-20 0 -32.5 10t-12.5 24z" />
    <glyph glyph-name="trademark" unicode="&#x2122;" horiz-adv-x="1323" 
d="M518 811v594q0 11 10.5 20t22.5 9h117q8 0 32 -19l193 -371l186 373q13 17 29 17h115q11 0 20.5 -9.5t9.5 -19.5v-594q0 -10 -9.5 -19.5t-20.5 -9.5h-113q-31 0 -31 29v236l-108 -224q-16 -16 -31 -16h-92q-15 0 -31 16l-119 236v-248q0 -29 -32 -29h-115q-12 0 -22.5 9
t-10.5 20zM37 1311v86q0 14 12 25.5t29 11.5h366q19 0 32 -11.5t13 -25.5v-86q0 -14 -13 -25.5t-32 -11.5h-88v-453q0 -14 -13 -25.5t-32 -11.5h-96q-19 0 -32 11.5t-13 25.5v453h-92q-17 0 -29 11.5t-12 25.5z" />
    <glyph glyph-name="uni25FC" unicode="&#x25fc;" horiz-adv-x="1413" 
d="M0 0v1413h1413v-1413h-1413z" />
    </font>
</defs>
</svg>
