<?xml version="1.0" encoding="utf-8"?>
<!-- Generator: Adobe Illustrator 21.1.0, SVG Export Plug-In . SVG Version: 6.00 Build 0)  -->
<svg version="1.1" id="Layer_1" xmlns="http://www.w3.org/2000/svg" xmlns:xlink="http://www.w3.org/1999/xlink" x="0px" y="0px"
	 viewBox="0 0 334.8 69.7" style="enable-background:new 0 0 334.8 69.7;" xml:space="preserve">
<style type="text/css">
	.st0{opacity:0.15;}
	.st1{fill:#FFFFFF;}
</style>
<g class="st0">
	<rect x="1.2" y="1.5" class="st1" width="332.3" height="45.8"/>
	<path d="M334,47.8H0.7V1H334V47.8z M1.7,46.8H333V2H1.7V46.8z"/>
</g>
<g>
	<path class="st1" d="M49.7,27.9l1.3,1.3c-1,1-2.4,1.6-4,1.6c-3.1,0-5.6-2.2-5.6-5.8c0-3.4,2.3-5.8,5.6-5.8c1.6,0,2.9,0.6,4,1.6
		l-1.3,1.3c-0.7-0.7-1.6-1.1-2.6-1.1c-2.3,0-3.7,1.6-3.7,3.9c0,2.4,1.6,3.9,3.7,3.9C48.1,29,49.1,28.6,49.7,27.9z"/>
	<path class="st1" d="M67.1,25c0,0.6-0.5,1.1-1.1,1.1c-0.6,0-1.1-0.5-1.1-1.1c0-0.6,0.5-1.1,1.1-1.1C66.6,23.9,67.1,24.4,67.1,25z"
		/>
	<path class="st1" d="M87,29.4h-3.9l-0.5,1.3h-2L85,19.2l4.5,11.5h-2L87,29.4z M83.7,27.8h2.7L85,23.9L83.7,27.8z"/>
	<path class="st1" d="M104.9,25c0,0.6-0.5,1.1-1.1,1.1c-0.6,0-1.1-0.5-1.1-1.1c0-0.6,0.5-1.1,1.1-1.1
		C104.5,23.9,104.9,24.4,104.9,25z"/>
	<path class="st1" d="M123,26h-1.5v4.7h-1.9V19.5h3.7c0,0,3.7,0,3.7,3.3c0,1.8-1.2,2.6-2.2,3l2.3,5h-2.1L123,26z M121.5,24.1h1.9
		c0,0,1.9,0,1.9-1.4c0-1.4-1.9-1.4-1.9-1.4h-1.9V24.1z"/>
	<path class="st1" d="M143.4,25c0,0.6-0.5,1.1-1.1,1.1c-0.6,0-1.1-0.5-1.1-1.1c0-0.6,0.5-1.1,1.1-1.1
		C142.9,23.9,143.4,24.4,143.4,25z"/>
	<path class="st1" d="M160,21.3v2.8h4.7V26H160v2.8h5.6v1.9h-7.5V19.5h7.5v1.9H160z"/>
	<path class="st1" d="M181.7,25c0,0.6-0.5,1.1-1.1,1.1c-0.6,0-1.1-0.5-1.1-1.1c0-0.6,0.5-1.1,1.1-1.1
		C181.2,23.9,181.7,24.4,181.7,25z"/>
	<path class="st1" d="M205.4,19.5l-4.2,5.9v5.3h-1.9v-5.3l-4.2-5.9h2.3l2.9,4l2.8-4H205.4z"/>
	<path class="st1" d="M220.8,25c0,0.6-0.5,1.1-1.1,1.1c-0.6,0-1.1-0.5-1.1-1.1c0-0.6,0.5-1.1,1.1-1.1
		C220.4,23.9,220.8,24.4,220.8,25z"/>
	<path class="st1" d="M237.4,21.3v2.8h4.7V26h-4.7v2.8h5.6v1.9h-7.5V19.5h7.5v1.9H237.4z"/>
	<path class="st1" d="M259.1,25c0,0.6-0.5,1.1-1.1,1.1c-0.6,0-1.1-0.5-1.1-1.1c0-0.6,0.5-1.1,1.1-1.1
		C258.6,23.9,259.1,24.4,259.1,25z"/>
	<path class="st1" d="M273.4,27.6h1.9c0,0.9,0.8,1.4,1.6,1.4c0.9,0,1.6-0.5,1.6-1.4c0-0.9-0.9-1.5-1.6-1.6c-0.1,0-0.9,0-1.7-0.4
		c-1.2-0.5-1.8-1.5-1.8-2.9c0-2.1,1.7-3.4,3.5-3.4c1.9,0,3.4,1.3,3.5,3.2h-1.9c0-0.9-0.8-1.3-1.6-1.3c-0.9,0-1.6,0.5-1.6,1.6
		c0,0.9,0.8,1.4,1.6,1.4c0.1,0,0.9,0,1.7,0.4c1.2,0.5,1.8,1.7,1.8,3c0,2.1-1.7,3.3-3.5,3.3C275,30.8,273.4,29.7,273.4,27.6z"/>
</g>
<g>
	<path class="st1" d="M51.1,61.6h-1.9v-0.8h4.7v0.8H52v6.2h-0.9V61.6z"/>
	<path class="st1" d="M67.7,64.3c0,0.6,0,3.6-2.5,3.6c-1.1,0-2.5-0.8-2.5-3.6c0-2.8,1.3-3.6,2.5-3.6C66.3,60.7,67.7,61.5,67.7,64.3z
		 M63.6,64.3c0,1,0.2,2.8,1.5,2.8c1.4,0,1.5-1.8,1.5-2.8c0-1-0.2-2.8-1.5-2.8C63.8,61.5,63.6,63.3,63.6,64.3z"/>
	<path class="st1" d="M76.4,60.8h2.3c2,0,2.9,0.8,2.9,3.4c0,2.2-0.4,3.6-2.9,3.6h-2.3V67h0.7v-5.4h-0.7V60.8z M78,67h1
		c1.2,0,1.7-0.7,1.7-2.7c0-2.2-0.6-2.7-1.7-2.7H78V67z"/>
	<path class="st1" d="M95,64.3c0,0.6,0,3.6-2.5,3.6c-1.1,0-2.5-0.8-2.5-3.6c0-2.8,1.3-3.6,2.5-3.6C93.6,60.7,95,61.5,95,64.3z
		 M90.9,64.3c0,1,0.2,2.8,1.5,2.8s1.5-1.8,1.5-2.8c0-1-0.2-2.8-1.5-2.8S90.9,63.3,90.9,64.3z"/>
	<path class="st1" d="M122.3,66.5c-0.6,0.9-1.2,1.5-2.3,1.5c-2,0-2.7-1.9-2.7-3.6c0-2.8,1.5-3.6,2.6-3.6c1.1,0,1.7,0.6,2.2,1.5
		l-0.8,0.4c-0.3-0.6-0.7-1.1-1.4-1.1c-1.4,0-1.7,1.7-1.7,2.8c0,1.1,0.3,2.8,1.7,2.8c0.8,0,1.2-0.5,1.7-1.1L122.3,66.5z"/>
	<path class="st1" d="M135.9,64.3c0,0.6,0,3.6-2.5,3.6c-1.1,0-2.5-0.8-2.5-3.6c0-2.8,1.3-3.6,2.5-3.6
		C134.5,60.7,135.9,61.5,135.9,64.3z M131.9,64.3c0,1,0.2,2.8,1.5,2.8s1.5-1.8,1.5-2.8c0-1-0.2-2.8-1.5-2.8S131.9,63.3,131.9,64.3z"
		/>
	<path class="st1" d="M145.5,62.2L145.5,62.2l-0.2,5.7h-1l0.3-7h1.2l1.3,3l1.3-3h1.2l0.3,7h-1l-0.2-5.7h0l-1.6,3.7L145.5,62.2z"/>
	<path class="st1" d="M159.3,67h1v-5.4h-1v-0.8h2.9v0.8h-1V67h1v0.8h-2.9V67z"/>
	<path class="st1" d="M172.5,60.8h4.4v0.8h-3.5v2.1h2.9v0.8h-2.9V67h3.5v0.8h-4.4V60.8z"/>
	<path class="st1" d="M185.7,60.8h1.1l2.7,5.9l0,0l-0.1-1.8v-4.1h0.9v7h-1.1l-2.7-5.9l0,0l0.1,1.8v4.1h-0.9V60.8z"/>
	<path class="st1" d="M202.7,61.6h-3.3v-0.8h4.8l-3.7,6.2h3.8v0.8h-5.3L202.7,61.6z"/>
	<path class="st1" d="M214.1,65.9l-0.7,2.1l-0.9-0.3l2.2-6.9h1.2l2.2,6.9l-0.9,0.3l-0.6-2.1H214.1z M215.4,61.9l-1,3.2h2L215.4,61.9
		z"/>
	<path class="st1" d="M241.4,65.9l-0.7,2.1l-0.9-0.3l2.2-6.9h1.2l2.2,6.9l-0.9,0.3l-0.6-2.1H241.4z M242.7,61.9l-1,3.2h2L242.7,61.9
		z"/>
	<path class="st1" d="M259,67.6l-0.6,0.6l-0.8-0.7c-0.4,0.3-0.8,0.4-1.3,0.4c-1.1,0-2.5-0.8-2.5-3.6c0-2.7,1.2-3.6,2.5-3.6
		c1.1,0,2.5,0.8,2.5,3.6c0,0.8-0.1,1.9-0.6,2.6L259,67.6z M255.8,65.9l0.6-0.6l1.1,1c0.3-0.6,0.3-1.3,0.3-1.9c0-1-0.2-2.8-1.5-2.8
		c-1.4,0-1.5,1.8-1.5,2.8c0,1,0.2,2.8,1.5,2.8c0.2,0,0.5-0.1,0.7-0.2L255.8,65.9z"/>
	<path class="st1" d="M268.7,60.8v4.8c0,1,0.3,1.5,1.2,1.5c1.1,0,1.4-0.5,1.4-1.5v-4.8h0.9V66c0,0.9-0.7,1.9-2.2,1.9
		c-1.5,0-2.2-1-2.2-2v-5.2H268.7z"/>
	<path class="st1" d="M282.2,67h1v-5.4h-1v-0.8h2.9v0.8h-1V67h1v0.8h-2.9V67z"/>
</g>
</svg>
