<?xml version="1.0" encoding="utf-8"?>
<!-- Generator: Adobe Illustrator 21.1.0, SVG Export Plug-In . SVG Version: 6.00 Build 0)  -->
<svg version="1.1" id="Layer_1" xmlns="http://www.w3.org/2000/svg" xmlns:xlink="http://www.w3.org/1999/xlink" x="0px" y="0px"
	 viewBox="0 0 177 177.3" style="enable-background:new 0 0 177 177.3;" xml:space="preserve">
<style type="text/css">
	.st0{fill:#FFFFFF;}
</style>
<g>
	<path d="M12,14.4V26h-1.9v-4.9H5.2V26H3.3V14.4h1.9v4.8h4.8v-4.8H12z"/>
	<path d="M28.4,24.7h-4.1L23.8,26h-2.1l4.6-12L31,26h-2.1L28.4,24.7z M24.9,23h2.8l-1.4-4L24.9,23z"/>
	<path d="M46.9,24.1V26h-6.3V14.4h1.9v9.7H46.9z"/>
	<path d="M59.2,16.3v2.9h4.8v1.9h-4.8V26h-1.9V14.4h7.8v1.9H59.2z"/>
	<path d="M98.1,14.4V26h-1.9v-4.9h-4.8V26h-1.9V14.4h1.9v4.8h4.8v-4.8H98.1z"/>
	<path d="M114.4,26.2c-7.7,0-7.7-12,0-12C122,14.2,122,26.2,114.4,26.2z M114.4,16.1c-5,0-5,8.2,0,8.2
		C119.4,24.3,119.4,16.1,114.4,16.1z"/>
	<path d="M130.7,22.3v-7.9h1.9v7.9c0.1,1.3,1.2,1.9,2.4,1.9c1.2,0,2.4-0.6,2.4-1.9v-7.9h1.9v7.9c0,2.5-1.9,3.9-4.4,3.9
		C132.6,26.2,130.7,24.7,130.7,22.3z"/>
	<path d="M149.9,22.8h1.9c0,1,0.8,1.4,1.7,1.4c0.9,0,1.7-0.6,1.7-1.5c0-1-0.9-1.6-1.7-1.6c-0.1,0-0.9,0-1.7-0.4
		c-1.2-0.6-1.9-1.6-1.9-3c0-2.2,1.8-3.6,3.6-3.6c2,0,3.6,1.4,3.6,3.3h-1.9c0-1-0.8-1.4-1.7-1.4c-0.9,0-1.7,0.5-1.7,1.6
		c0,1,0.8,1.5,1.7,1.5c0.1,0,0.9,0,1.7,0.4c1.2,0.6,1.9,1.7,1.9,3.1c0,2.2-1.7,3.4-3.6,3.4C151.6,26.1,150,25,149.9,22.8z"/>
	<path d="M169.7,16.3v2.9h4.8v1.9h-4.8v2.9h5.8V26h-7.8V14.4h7.8v1.9H169.7z"/>
</g>
<g>
	<circle cx="84.9" cy="110.9" r="63.1"/>
</g>
<g>
	<path class="st0" d="M67.9,134.7v-5.6H73V91.4h-5.1v-5.6h15.4c12.4,0,17.8,4.7,17.8,13.1c0,4.2-1.8,8-5.5,10.1
		c5.4,1.7,8.4,6.3,8.4,11.9c0,8.8-5.8,14-16.1,14H67.9z M86.4,106.7c5.5,0,8.2-3.5,8.2-7.9c0-5.8-4.1-7.4-8.6-7.4h-6.7v15.3H86.4z
		 M86.7,129.1c5.5,0,10.7-1.2,10.7-7.9c0-4.9-3.2-8.8-9.2-8.8h-8.8v16.7H86.7z"/>
</g>
</svg>
