<?xml version="1.0" encoding="utf-8"?>
<!-- Generator: Adobe Illustrator 21.1.0, SVG Export Plug-In . SVG Version: 6.00 Build 0)  -->
<svg version="1.1" id="Layer_1" xmlns="http://www.w3.org/2000/svg" xmlns:xlink="http://www.w3.org/1999/xlink" x="0px" y="0px"
	 viewBox="0 0 177 177.3" style="enable-background:new 0 0 177 177.3;" xml:space="preserve">
<style type="text/css">
	.st0{fill:#FFFFFF;}
</style>
<g>
	<path d="M5.1,7.4v2.9H10v1.9H5.1v4.9H3.2V5.4h7.8v1.9H5.1z"/>
	<path d="M21.1,13.4V5.4h1.9v7.9c0.1,1.3,1.2,1.9,2.4,1.9c1.2,0,2.4-0.6,2.4-1.9V5.4h1.9v7.9c0,2.5-1.9,3.9-4.4,3.9
		C23.1,17.3,21.1,15.8,21.1,13.4z"/>
	<path d="M47.1,15.1v1.9h-6.3V5.4h1.9v9.7H47.1z"/>
	<path d="M63.8,15.1v1.9h-6.3V5.4h1.9v9.7H63.8z"/>
	<path d="M97,5.4v11.7h-1.9v-4.9h-4.8v4.9h-1.9V5.4h1.9v4.8h4.8V5.4H97z"/>
	<path d="M113.3,17.2c-7.7,0-7.7-12,0-12C120.9,5.3,120.9,17.2,113.3,17.2z M113.3,7.2c-5,0-5,8.2,0,8.2
		C118.3,15.4,118.3,7.2,113.3,7.2z"/>
	<path d="M129.6,13.4V5.4h1.9v7.9c0.1,1.3,1.2,1.9,2.4,1.9c1.2,0,2.4-0.6,2.4-1.9V5.4h1.9v7.9c0,2.5-1.9,3.9-4.4,3.9
		C131.5,17.3,129.6,15.8,129.6,13.4z"/>
	<path d="M148.9,13.9h1.9c0,1,0.8,1.4,1.7,1.4c0.9,0,1.7-0.6,1.7-1.5c0-1-0.9-1.6-1.7-1.6c-0.1,0-0.9,0-1.7-0.4
		c-1.2-0.6-1.9-1.6-1.9-3c0-2.2,1.8-3.6,3.6-3.6c2,0,3.6,1.4,3.6,3.3h-1.9c0-1-0.8-1.4-1.7-1.4c-0.9,0-1.7,0.5-1.7,1.6
		c0,1,0.8,1.5,1.7,1.5c0.1,0,0.9,0,1.7,0.4c1.2,0.6,1.9,1.7,1.9,3.1c0,2.2-1.7,3.4-3.6,3.4C150.5,17.2,148.9,16,148.9,13.9z"/>
	<path d="M168.6,7.4v2.9h4.8v1.9h-4.8v2.9h5.8v1.9h-7.8V5.4h7.8v1.9H168.6z"/>
</g>
<g>
	<circle cx="85.6" cy="110.9" r="63.1"/>
</g>
<g>
	<path class="st0" d="M75.6,116.9l-4.9,20.6l-6.2-1.7l15.9-62.3h7.5l15.9,62.3l-6.2,1.7l-4.9-20.6H75.6z M84.2,81.9H84l-7,29.3h14.1
		L84.2,81.9z"/>
</g>
</svg>
