<?xml version="1.0" encoding="utf-8"?>
<!-- Generator: Adobe Illustrator 21.1.0, SVG Export Plug-In . SVG Version: 6.00 Build 0)  -->
<svg version="1.1" id="Layer_1" xmlns="http://www.w3.org/2000/svg" xmlns:xlink="http://www.w3.org/1999/xlink" x="0px" y="0px"
	 viewBox="0 0 1240 502" style="enable-background:new 0 0 1240 502;" xml:space="preserve">
<g>
	<path d="M255,494.6l-0.1-4.4c2.9,0,5.8-0.1,8.7-0.3l0.2,4.4C260.9,494.5,258,494.6,255,494.6z M246.2,494.6c-3-0.1-5.9-0.2-8.8-0.3
		l0.2-4.4c2.9,0.1,5.8,0.3,8.7,0.3L246.2,494.6z M272.7,493.7l-0.4-4.4c2.9-0.3,5.8-0.6,8.6-0.9l0.5,4.4
		C278.6,493.1,275.6,493.4,272.7,493.7z M228.5,493.7c-2.9-0.3-5.9-0.6-8.8-1l0.5-4.4c2.9,0.4,5.7,0.7,8.6,0.9L228.5,493.7z
		 M290.2,491.5l-0.7-4.3c2.9-0.5,5.7-1,8.6-1.5l0.9,4.3C296.1,490.5,293.2,491,290.2,491.5z M211,491.4c-2.9-0.5-5.8-1-8.7-1.6
		l0.9-4.3c2.8,0.6,5.7,1.1,8.5,1.6L211,491.4z M307.6,488l-1-4.3c2.8-0.7,5.6-1.4,8.4-2.2l1.2,4.2
		C313.3,486.6,310.5,487.4,307.6,488z M193.6,487.9c-2.9-0.7-5.7-1.4-8.6-2.2l1.2-4.2c2.8,0.8,5.6,1.5,8.4,2.2L193.6,487.9z
		 M324.6,483.3l-1.3-4.2c2.8-0.9,5.5-1.8,8.2-2.8l1.5,4.1C330.3,481.5,327.5,482.4,324.6,483.3z M176.6,483.2
		c-2.8-0.9-5.6-1.8-8.4-2.8l1.5-4.1c2.7,1,5.5,1.9,8.3,2.8L176.6,483.2z M341.3,477.4l-1.6-4.1c2.7-1.1,5.4-2.2,8-3.3l1.8,4
		C346.8,475.2,344,476.3,341.3,477.4z M159.9,477.2c-2.7-1.1-5.5-2.2-8.2-3.4l1.8-4c2.7,1.2,5.3,2.3,8,3.4L159.9,477.2z
		 M357.5,470.3l-1.9-3.9c2.6-1.3,5.2-2.6,7.7-3.9l2.1,3.9C362.7,467.7,360.1,469,357.5,470.3z M143.7,470c-2.7-1.3-5.3-2.6-7.9-4
		l2.1-3.9c2.6,1.4,5.1,2.7,7.8,4L143.7,470z M373.1,462l-2.2-3.8c2.5-1.5,5-2.9,7.4-4.5l2.3,3.7C378.1,459,375.6,460.5,373.1,462z
		 M128,461.7c-2.6-1.5-5.1-3-7.6-4.6l2.3-3.7c2.5,1.5,4.9,3,7.4,4.5L128,461.7z M388,452.6l-2.5-3.6c2.4-1.6,4.8-3.3,7.1-5l2.6,3.5
		C392.9,449.3,390.5,451,388,452.6z M113.1,452.2c-2.4-1.7-4.8-3.4-7.2-5.1l2.6-3.5c2.3,1.7,4.7,3.4,7.1,5L113.1,452.2z
		 M402.3,442.2l-2.7-3.4c2.3-1.8,4.5-3.6,6.7-5.5l2.8,3.3C406.9,438.5,404.6,440.4,402.3,442.2z M98.8,441.7
		c-2.3-1.8-4.6-3.7-6.8-5.6l2.8-3.3c2.2,1.9,4.4,3.7,6.7,5.5L98.8,441.7z M415.8,430.8l-3-3.2c2.1-2,4.2-3.9,6.3-6l3.1,3.1
		C420.1,426.8,417.9,428.8,415.8,430.8z M85.3,430.3c-2.2-2-4.3-4-6.4-6.1L82,421c2.1,2,4.2,4,6.3,6L85.3,430.3z M428.4,418.4
		l-3.2-3c2-2.1,4-4.2,5.9-6.4l3.3,2.9C432.4,414.1,430.4,416.2,428.4,418.4z M72.7,417.8c-2-2.1-4-4.3-6-6.5l3.3-2.9
		c1.9,2.2,3.9,4.3,5.8,6.4L72.7,417.8z M440.1,405.1l-3.4-2.8c1.8-2.2,3.6-4.5,5.4-6.8l3.5,2.7C443.8,400.5,442,402.8,440.1,405.1z
		 M61.1,404.5c-1.9-2.3-3.7-4.6-5.5-7l3.5-2.6c1.7,2.3,3.5,4.6,5.4,6.8L61.1,404.5z M450.9,391l-3.6-2.5c1.7-2.4,3.3-4.8,4.9-7.2
		l3.7,2.4C454.2,386.2,452.6,388.6,450.9,391z M50.4,390.5c-1.7-2.4-3.3-4.9-5-7.3l3.7-2.4c1.6,2.4,3.2,4.8,4.9,7.2L50.4,390.5z
		 M460.5,376.2l-3.8-2.3c1.5-2.5,3-5,4.4-7.5l3.8,2.1C463.6,371.1,462.1,373.7,460.5,376.2z M40.8,375.6c-1.5-2.5-3-5.1-4.4-7.6
		l3.8-2.1c1.4,2.5,2.8,5,4.3,7.5L40.8,375.6z M469.2,360.7l-3.9-2c1.3-2.6,2.6-5.2,3.8-7.8l4,1.8
		C471.8,355.4,470.5,358.1,469.2,360.7z M32.2,360.2c-1.3-2.6-2.6-5.3-3.8-7.9l4-1.8c1.2,2.6,2.5,5.2,3.8,7.8L32.2,360.2z
		 M476.6,344.7l-4-1.7c1.1-2.7,2.2-5.4,3.2-8.1l4.1,1.6C478.9,339.2,477.8,341.9,476.6,344.7z M24.8,344.2c-1.1-2.7-2.2-5.4-3.3-8.2
		l4.1-1.5c1,2.7,2.1,5.4,3.2,8.1L24.8,344.2z M482.9,328.1l-4.2-1.4c0.9-2.7,1.8-5.5,2.6-8.3l4.2,1.3
		C484.7,322.5,483.8,325.3,482.9,328.1z M18.6,327.6c-0.9-2.8-1.8-5.6-2.7-8.4l4.2-1.2c0.8,2.8,1.7,5.5,2.6,8.3L18.6,327.6z
		 M487.9,311.1l-4.2-1.1c0.7-2.8,1.4-5.6,2-8.5l4.3,0.9C489.3,305.4,488.7,308.3,487.9,311.1z M13.6,310.7c-0.7-2.9-1.4-5.7-2-8.6
		l4.3-0.9c0.6,2.8,1.3,5.7,2,8.5L13.6,310.7z M491.7,293.8l-4.3-0.8c0.5-2.8,1-5.7,1.4-8.6l4.3,0.6
		C492.7,288,492.2,290.9,491.7,293.8z M9.9,293.4c-0.5-2.9-1-5.8-1.4-8.7l4.3-0.6c0.4,2.9,0.9,5.7,1.4,8.6L9.9,293.4z M494.2,276.3
		l-4.4-0.5c0.3-2.9,0.6-5.8,0.8-8.7l4.4,0.3C494.8,270.5,494.6,273.4,494.2,276.3z M7.4,275.9c-0.3-2.9-0.6-5.9-0.8-8.8l4.4-0.3
		c0.2,2.9,0.5,5.8,0.8,8.7L7.4,275.9z M495.5,258.7l-4.4-0.2c0.1-2.9,0.2-5.8,0.2-8.7h4.4C495.7,252.8,495.6,255.7,495.5,258.7z
		 M6.1,258.2C6,255.4,6,252.6,6,249.8v-0.5h4.4v0.5c0,2.8,0,5.5,0.1,8.2L6.1,258.2z M491.1,242c-0.1-2.9-0.2-5.8-0.4-8.7l4.4-0.3
		c0.2,2.9,0.3,5.9,0.4,8.8L491.1,242z M10.6,240.7l-4.4-0.2c0.1-3,0.3-5.9,0.5-8.8L11,232C10.8,234.9,10.7,237.8,10.6,240.7z
		 M490,224.7c-0.3-2.9-0.7-5.8-1.1-8.6l4.3-0.6c0.4,2.9,0.8,5.8,1.1,8.8L490,224.7z M11.8,223.4l-4.4-0.5c0.3-2.9,0.7-5.9,1.1-8.8
		l4.3,0.6C12.5,217.6,12.1,220.5,11.8,223.4z M487.6,207.5c-0.5-2.9-1.1-5.7-1.7-8.5l4.3-0.9c0.6,2.9,1.2,5.8,1.7,8.7L487.6,207.5z
		 M14.3,206.2l-4.3-0.8c0.5-2.9,1.1-5.8,1.8-8.7l4.3,0.9C15.4,200.5,14.9,203.3,14.3,206.2z M483.9,190.5c-0.7-2.8-1.5-5.6-2.3-8.4
		l4.2-1.2c0.8,2.8,1.6,5.7,2.3,8.5L483.9,190.5z M18.1,189.2l-4.2-1.1c0.7-2.9,1.5-5.7,2.4-8.5l4.2,1.3
		C19.6,183.6,18.8,186.4,18.1,189.2z M479,173.8c-0.9-2.8-1.9-5.5-2.9-8.2l4.1-1.5c1,2.8,2,5.5,2.9,8.3L479,173.8z M23.1,172.6
		l-4.2-1.4c1-2.8,2-5.6,3-8.4l4.1,1.6C25,167.1,24,169.8,23.1,172.6z M472.9,157.6c-1.1-2.7-2.3-5.3-3.5-7.9l4-1.8
		c1.2,2.7,2.4,5.4,3.5,8.1L472.9,157.6z M29.3,156.3l-4-1.7c1.2-2.7,2.4-5.4,3.6-8.1l4,1.9C31.6,151,30.4,153.6,29.3,156.3z
		 M465.7,141.8c-1.3-2.6-2.6-5.1-4-7.7l3.8-2.1c1.4,2.6,2.8,5.2,4.1,7.8L465.7,141.8z M36.6,140.5l-3.9-2c1.3-2.6,2.7-5.2,4.2-7.8
		l3.8,2.1C39.3,135.4,37.9,137.9,36.6,140.5z M457.4,126.6c-1.5-2.5-3-4.9-4.6-7.4l3.7-2.4c1.6,2.5,3.2,5,4.7,7.5L457.4,126.6z
		 M45.1,125.3l-3.8-2.3c1.5-2.5,3.1-5,4.7-7.5l3.7,2.4C48.1,120.4,46.6,122.8,45.1,125.3z M447.9,112.1c-1.7-2.4-3.4-4.7-5.1-7
		l3.5-2.6c1.8,2.4,3.5,4.7,5.2,7.1L447.9,112.1z M54.6,110.8l-3.6-2.5c1.7-2.4,3.5-4.8,5.3-7.1l3.5,2.7
		C58,106.1,56.3,108.4,54.6,110.8z M437.5,98.2c-1.8-2.2-3.7-4.5-5.6-6.6l3.3-2.9c1.9,2.2,3.8,4.5,5.7,6.8L437.5,98.2z M65.2,97
		l-3.4-2.8c1.9-2.3,3.8-4.5,5.8-6.7l3.3,2.9C68.9,92.5,67.1,94.7,65.2,97z M426,85.2c-2-2.1-4-4.2-6.1-6.2l3.1-3.1
		c2.1,2.1,4.2,4.2,6.2,6.3L426,85.2z M76.7,84l-3.2-3c2-2.1,4.1-4.2,6.2-6.3l3.1,3.1C80.8,79.8,78.7,81.9,76.7,84z M413.7,72.9
		c-2.1-2-4.3-3.9-6.5-5.8l2.9-3.3c2.2,1.9,4.4,3.9,6.6,5.9L413.7,72.9z M89.2,71.8l-2.9-3.2c2.2-2,4.4-3.9,6.6-5.8l2.8,3.3
		C93.5,68,91.3,69.9,89.2,71.8z M400.5,61.6c-2.3-1.8-4.6-3.6-6.9-5.3l2.6-3.5c2.4,1.8,4.7,3.6,7,5.4L400.5,61.6z M102.4,60.6
		l-2.7-3.4c2.3-1.8,4.7-3.6,7-5.3l2.6,3.5C107,57.1,104.7,58.8,102.4,60.6z M386.5,51.3c-2.4-1.6-4.8-3.2-7.3-4.8l2.3-3.7
		c2.5,1.6,5,3.2,7.4,4.9L386.5,51.3z M116.5,50.4l-2.5-3.6c2.4-1.6,4.9-3.2,7.4-4.8l2.3,3.7C121.3,47.2,118.9,48.8,116.5,50.4z
		 M371.8,42c-2.5-1.5-5-2.9-7.6-4.2l2.1-3.9c2.6,1.4,5.2,2.8,7.7,4.3L371.8,42z M131.2,41.2l-2.2-3.8c2.5-1.5,5.1-2.9,7.7-4.3l2,3.9
		C136.2,38.4,133.7,39.8,131.2,41.2z M356.5,33.8c-2.6-1.3-5.2-2.5-7.9-3.7l1.8-4c2.7,1.2,5.4,2.5,8,3.8L356.5,33.8z M146.5,33.1
		l-1.9-3.9c2.6-1.3,5.3-2.5,8-3.7l1.8,4C151.7,30.7,149.1,31.9,146.5,33.1z M340.6,26.7c-2.7-1.1-5.4-2.1-8.1-3.1l1.5-4.1
		c2.8,1,5.6,2.1,8.3,3.2L340.6,26.7z M162.4,26.2l-1.6-4.1c2.7-1.1,5.5-2.1,8.3-3.1l1.5,4.1C167.8,24.1,165.1,25.1,162.4,26.2z
		 M324.2,20.8c-2.8-0.9-5.5-1.7-8.3-2.5l1.2-4.2c2.8,0.8,5.7,1.6,8.5,2.5L324.2,20.8z M178.8,20.4l-1.3-4.2c2.8-0.9,5.6-1.7,8.5-2.5
		l1.2,4.2C184.3,18.7,181.5,19.5,178.8,20.4z M307.4,16.1c-2.8-0.7-5.6-1.3-8.5-1.9l0.9-4.3c2.9,0.6,5.8,1.2,8.6,1.9L307.4,16.1z
		 M195.5,15.8l-1-4.3c2.9-0.7,5.7-1.3,8.7-1.9l0.8,4.3C201.2,14.5,198.3,15.1,195.5,15.8z M290.4,12.6c-2.8-0.5-5.7-0.9-8.6-1.3
		l0.6-4.4c2.9,0.4,5.8,0.8,8.8,1.3L290.4,12.6z M212.6,12.4l-0.7-4.3c2.9-0.5,5.8-0.9,8.8-1.2l0.5,4.4
		C218.3,11.6,215.4,12,212.6,12.4z M273.2,10.4c-2.9-0.3-5.8-0.5-8.7-0.6l0.2-4.4c3,0.2,5.9,0.4,8.8,0.7L273.2,10.4z M229.8,10.3
		l-0.4-4.4c2.9-0.3,5.9-0.5,8.8-0.6l0.2,4.4C235.6,9.8,232.7,10,229.8,10.3z M255.8,9.4c-2.9-0.1-5.8-0.1-8.7,0L247.1,5
		c2.9,0,5.9,0,8.8,0L255.8,9.4z"/>
</g>
<g>
	<path d="M74.7,224.8h6.5v39.1h-6.5V224.8z"/>
	<path d="M145.1,263.9h-6.6l-19.4-27.8v27.8h-6.5v-39.1h6.6l19.5,27.8v-27.8h6.5V263.9z"/>
	<path d="M203.8,254.2l4.6,4.6c-3.5,3.5-8.4,5.7-13.8,5.7c-10.8,0-19.6-7.8-19.6-20.1c0-11.8,8.2-20.1,19.6-20.1
		c5.4,0,10.3,2.2,13.8,5.8l-4.6,4.6c-2.3-2.3-5.6-3.8-9.2-3.8c-8,0-13,5.7-13,13.6c0,8.4,5.8,13.6,13,13.6
		C198.2,258,201.5,256.5,203.8,254.2z"/>
	<path d="M258.4,257.4v6.5h-21v-39.1h6.5v32.6H258.4z"/>
	<path d="M286.6,251.4v-26.6h6.5v26.6c0.3,4.5,4,6.5,8.1,6.5c4.1,0,8.2-2.2,8.2-6.5v-26.6h6.5v26.6c0,8.3-6.4,13.1-14.7,13.1
		C293.2,264.5,286.6,259.5,286.6,251.4z"/>
	<path d="M378.6,224.8l-14.7,20.6v18.5h-6.5v-18.5l-14.7-20.6h8l10,14l9.9-14H378.6z"/>
	<path d="M409.6,231.4v9.8h16.3v6.5h-16.3v9.8h19.6v6.5h-26.1v-39.1h26.1v6.5H409.6z"/>
</g>
<g>
	<g>
		<rect x="563.9" y="244.7" width="4.4" height="4.4"/>
	</g>
	<g>
		<path d="M1217.4,249.1h-8.8v-4.4h8.8V249.1z M1199.8,249.1h-8.8v-4.4h8.8V249.1z M1182.3,249.1h-8.8v-4.4h8.8V249.1z
			 M1164.8,249.1h-8.8v-4.4h8.8V249.1z M1147.2,249.1h-8.8v-4.4h8.8V249.1z M1129.7,249.1h-8.8v-4.4h8.8V249.1z M1112.1,249.1h-8.8
			v-4.4h8.8V249.1z M1094.6,249.1h-8.8v-4.4h8.8V249.1z M1077,249.1h-8.8v-4.4h8.8V249.1z M1059.5,249.1h-8.8v-4.4h8.8V249.1z
			 M1041.9,249.1h-8.8v-4.4h8.8V249.1z M1024.4,249.1h-8.8v-4.4h8.8V249.1z M1006.9,249.1h-8.8v-4.4h8.8V249.1z M989.3,249.1h-8.8
			v-4.4h8.8V249.1z M971.8,249.1H963v-4.4h8.8V249.1z M954.2,249.1h-8.8v-4.4h8.8V249.1z M936.7,249.1h-8.8v-4.4h8.8V249.1z
			 M919.1,249.1h-8.8v-4.4h8.8V249.1z M901.6,249.1h-8.8v-4.4h8.8V249.1z M884.1,249.1h-8.8v-4.4h8.8V249.1z M866.5,249.1h-8.8v-4.4
			h8.8V249.1z M849,249.1h-8.8v-4.4h8.8V249.1z M831.4,249.1h-8.8v-4.4h8.8V249.1z M813.9,249.1h-8.8v-4.4h8.8V249.1z M796.3,249.1
			h-8.8v-4.4h8.8V249.1z M778.8,249.1H770v-4.4h8.8V249.1z M761.2,249.1h-8.8v-4.4h8.8V249.1z M743.7,249.1h-8.8v-4.4h8.8V249.1z
			 M726.2,249.1h-8.8v-4.4h8.8V249.1z M708.6,249.1h-8.8v-4.4h8.8V249.1z M691.1,249.1h-8.8v-4.4h8.8V249.1z M673.5,249.1h-8.8v-4.4
			h8.8V249.1z M656,249.1h-8.8v-4.4h8.8V249.1z M638.4,249.1h-8.8v-4.4h8.8V249.1z M620.9,249.1h-8.8v-4.4h8.8V249.1z M603.4,249.1
			h-8.8v-4.4h8.8V249.1z M585.8,249.1H577v-4.4h8.8V249.1z"/>
	</g>
	<g>
		<rect x="1226.2" y="244.7" width="4.4" height="4.4"/>
	</g>
</g>
</svg>
